<svg version="1.1" xmlns="http://www.w3.org/2000/svg" viewBox="0 0 660.9176665951014 510.87109375" width="1321.8353331902028" height="1021.7421875">
  <!-- svg-source:excalidraw -->
  
  <defs>
    <style class="style-fonts">
      @font-face {
        font-family: "Virgil";
        src: url("https://excalidraw.com/Virgil.woff2");
      }
      @font-face {
        font-family: "Cascadia";
        src: url("https://excalidraw.com/Cascadia.woff2");
      }
    </style>
  </defs>
  <rect x="0" y="0" width="660.9176665951014" height="510.87109375" fill="#ffffff"></rect><g stroke-linecap="round"><g transform="translate(281.80058074351575 64.09709819401047) rotate(0 43.63815422148201 48.08084713261539)" fill-rule="evenodd"><path d="M-1.29 -1.06 L1.39 97.35 L1 99.19 L19.71 103.13 L45.91 105.94 L71.23 101.49 L82.37 100.85 L86.62 95.55 L86.28 -2.74 L86.05 0.92 L87.1 -4.37 L75.99 -4.08 L40.99 -10.92 L11.54 -4.47 L4.62 -3.51 L1.8 1.97" stroke="none" stroke-width="0" fill="#228be6" fill-rule="evenodd"></path><path d="M-0.43 0.11 C-0.54 14.47, -0.85 70.18, -0.83 86.17 C-0.81 102.16, -1.05 93.93, -0.32 96.06 C0.41 98.18, 0.29 97.78, 3.55 98.92 C6.8 100.06, 11.9 101.88, 19.19 102.92 C26.47 103.95, 38.21 104.99, 47.25 105.15 C56.29 105.31, 67.1 104.99, 73.4 103.87 C79.7 102.75, 82.55 99.86, 85.07 98.41 C87.59 96.97, 88.17 96.98, 88.51 95.19 C88.86 93.41, 87.37 102.2, 87.14 87.72 C86.9 73.25, 87.07 23.08, 87.1 8.34 C87.13 -6.41, 88.07 1.44, 87.31 -0.74 C86.55 -2.93, 85.6 -3.79, 82.55 -4.79 C79.49 -5.78, 75.72 -6.17, 68.96 -6.71 C62.21 -7.24, 50.03 -7.62, 42.03 -7.98 C34.04 -8.34, 27.54 -9.43, 21 -8.87 C14.46 -8.31, 6.48 -6.22, 2.8 -4.63 C-0.88 -3.03, -0.75 0.01, -1.07 0.69 C-1.39 1.37, 0.65 -0.29, 0.87 -0.56 M1.54 -0.88 C1.8 13.69, 1.76 71.38, 1.3 87.77 C0.83 104.16, -1.59 95.54, -1.26 97.48 C-0.93 99.42, -0.4 98.51, 3.27 99.41 C6.94 100.32, 13.19 102.1, 20.78 102.91 C28.37 103.73, 40.45 104.29, 48.8 104.3 C57.15 104.32, 64.48 104.05, 70.88 102.98 C77.28 101.91, 84.5 99.43, 87.22 97.9 C89.93 96.38, 87.14 95.57, 87.16 93.83 C87.19 92.1, 87.4 102.11, 87.36 87.51 C87.33 72.92, 87.23 21.06, 86.97 6.25 C86.71 -8.57, 86.44 0.62, 85.8 -1.38 C85.17 -3.37, 85.55 -4.83, 83.16 -5.73 C80.76 -6.62, 78.29 -6.36, 71.43 -6.73 C64.57 -7.11, 50.23 -7.73, 42.01 -7.97 C33.78 -8.2, 28.3 -8.75, 22.08 -8.15 C15.86 -7.55, 8.25 -5.97, 4.69 -4.37 C1.14 -2.77, 1.56 0.81, 0.77 1.44 C-0.03 2.07, -0.07 -0.44, -0.07 -0.6" stroke="#0a11d3" stroke-width="1" fill="none"></path></g></g><mask></mask><g stroke-linecap="round"><g transform="translate(282.48794233301317 129.3872262247981) rotate(0 43.344481515001064 4.514723127031743)"><path d="M0.11 -1.12 C0.51 -0.45, 0.37 2.36, 2.44 3.57 C4.52 4.79, 8.88 5.44, 12.57 6.18 C16.25 6.93, 18.99 7.46, 24.55 8.03 C30.1 8.61, 38.07 9.45, 45.88 9.62 C53.69 9.78, 64.69 10.2, 71.4 9.03 C78.12 7.85, 83.4 4.04, 86.16 2.57 C88.92 1.09, 87.62 0.84, 87.98 0.16 M-1.29 0.91 C-1.04 1.79, -0.64 3.92, 1.56 4.94 C3.76 5.95, 8.14 6.38, 11.91 6.98 C15.68 7.58, 18.22 8.02, 24.18 8.54 C30.14 9.07, 40.15 10.16, 47.67 10.15 C55.2 10.14, 63.36 9.44, 69.35 8.48 C75.34 7.52, 80.69 5.79, 83.6 4.4 C86.5 3.01, 86.27 0.84, 86.79 0.14" stroke="#0a11d3" stroke-width="1" fill="none"></path></g></g><mask></mask><g stroke-linecap="round"><g transform="translate(281.39420082095205 96.31307166272626) rotate(0 43.90139623133604 4.72527807920477)"><path d="M-1.12 0.12 C-0.71 0.78, -0.09 3.13, 1.99 4.11 C4.07 5.1, 7.6 5.3, 11.36 6.02 C15.13 6.74, 18.66 7.8, 24.58 8.42 C30.5 9.03, 39 9.63, 46.9 9.72 C54.8 9.81, 65.73 10.05, 71.98 8.95 C78.22 7.86, 81.54 4.72, 84.37 3.16 C87.19 1.6, 88.44 0.12, 88.92 -0.41 M0.49 -0.87 C0.75 -0.6, -1.33 0.83, 0.87 2.1 C3.08 3.36, 9.84 5.55, 13.73 6.72 C17.63 7.9, 18.93 8.53, 24.23 9.13 C29.54 9.72, 37.9 10.43, 45.57 10.3 C53.23 10.18, 63.73 9.2, 70.23 8.37 C76.72 7.54, 81.53 6.82, 84.53 5.31 C87.52 3.79, 87.52 0.35, 88.22 -0.72" stroke="#0a11d3" stroke-width="1" fill="none"></path></g></g><mask></mask><g stroke-linecap="round" transform="translate(280.2733781347903 56.07240196691379) rotate(0 43.825373054270926 8.863351988406833)"><path d="M25.95 -0.23 C34.08 -1.06, 47.73 0.39, 56.91 1.12 C66.1 1.85, 75.85 2.51, 81.07 4.15 C86.29 5.78, 89.51 9.05, 88.21 10.95 C86.91 12.86, 80.16 14.45, 73.28 15.57 C66.4 16.69, 56.37 17.74, 46.92 17.67 C37.48 17.6, 24.15 16.25, 16.59 15.14 C9.03 14.03, 3.53 12.79, 1.57 11.01 C-0.39 9.24, -1.38 6.4, 4.84 4.49 C11.06 2.58, 31.04 0.26, 38.89 -0.44 C46.75 -1.15, 51.88 0.03, 51.98 0.27 M59.81 0.36 C68.54 1, 78.73 3.45, 83.43 5.16 C88.13 6.88, 90.36 8.73, 87.99 10.64 C85.63 12.55, 76.97 15.65, 69.25 16.63 C61.54 17.61, 51.06 16.79, 41.72 16.52 C32.38 16.24, 20.13 15.97, 13.21 14.96 C6.29 13.95, 1.43 12.04, 0.2 10.46 C-1.03 8.88, 0.93 7.32, 5.84 5.46 C10.74 3.6, 20.27 0.12, 29.62 -0.69 C38.97 -1.49, 56.61 0.24, 61.94 0.63 C67.26 1.01, 61.79 1.34, 61.56 1.64" stroke="none" stroke-width="0" fill="#fff"></path><path d="M46.65 -0.59 C55.76 -0.34, 68.06 1.33, 75 2.9 C81.94 4.46, 87.6 7.01, 88.27 8.8 C88.93 10.6, 84.41 12.22, 78.99 13.67 C73.56 15.11, 64.81 16.86, 55.73 17.46 C46.65 18.06, 33.21 17.94, 24.49 17.29 C15.77 16.63, 7.27 15.39, 3.41 13.55 C-0.45 11.71, -1.31 8.27, 1.33 6.25 C3.97 4.23, 10.84 2.4, 19.25 1.43 C27.66 0.46, 45.56 0.42, 51.78 0.44 C57.99 0.45, 56.56 1.56, 56.56 1.51 M27.42 1.8 C35.47 1.24, 47.08 0.43, 55.72 0.63 C64.37 0.84, 74.17 1.28, 79.31 3.03 C84.45 4.78, 87.24 9.11, 86.56 11.12 C85.87 13.13, 81.8 14.09, 75.2 15.11 C68.61 16.13, 56.64 17.24, 46.97 17.25 C37.31 17.26, 24.71 16.38, 17.23 15.16 C9.74 13.95, 4.32 11.49, 2.04 9.98 C-0.24 8.48, -0.52 7.82, 3.54 6.13 C7.6 4.45, 22.72 0.95, 26.4 -0.14 C30.08 -1.24, 25.5 -0.55, 25.63 -0.45" stroke="#0a11d3" stroke-width="1" fill="none"></path></g><g stroke-linecap="round" transform="translate(351.7831104353702 80.64820484404737) rotate(0 6.423028523489904 6.970952181208048)"><path d="M3.59 0.47 C4.78 0.18, 8.19 0.26, 9.63 0.96 C11.07 1.66, 11.55 3.48, 12.22 4.68 C12.89 5.88, 13.96 6.7, 13.67 8.16 C13.39 9.62, 11.79 12.61, 10.52 13.44 C9.26 14.28, 7.61 13.32, 6.07 13.17 C4.53 13.02, 2.25 13.45, 1.28 12.57 C0.31 11.68, 0.33 9.47, 0.23 7.86 C0.14 6.26, -0.01 4.19, 0.69 2.95 C1.39 1.72, 3.66 0.94, 4.43 0.47 C5.19 0, 5.18 -0.05, 5.3 0.15 M3.6 1.15 C4.82 0.93, 7.33 1.58, 8.67 1.75 C10.01 1.92, 10.82 1.13, 11.63 2.15 C12.43 3.18, 13.84 6.4, 13.5 7.92 C13.16 9.44, 10.78 10.3, 9.59 11.28 C8.39 12.26, 7.43 13.77, 6.34 13.79 C5.24 13.8, 3.83 12.44, 3.03 11.35 C2.24 10.26, 2.13 8.32, 1.56 7.24 C1 6.16, -0.75 5.82, -0.37 4.88 C0.01 3.94, 3.01 2.07, 3.86 1.61 C4.72 1.14, 4.56 1.95, 4.77 2.08" stroke="none" stroke-width="0" fill="#fff"></path><path d="M3.2 0.82 C4.58 0.45, 6.97 0.81, 8.52 1.06 C10.07 1.31, 11.81 1.13, 12.48 2.32 C13.15 3.52, 12.8 6.76, 12.54 8.23 C12.27 9.7, 11.79 10.31, 10.91 11.14 C10.02 11.97, 8.46 12.99, 7.24 13.21 C6.01 13.43, 4.79 13.11, 3.56 12.45 C2.33 11.79, 0.37 10.8, -0.15 9.24 C-0.66 7.69, -0.37 4.71, 0.48 3.12 C1.33 1.53, 3.94 0.17, 4.94 -0.3 C5.94 -0.78, 6.65 0.2, 6.49 0.27 M5.05 -0.17 C6.48 -1.14, 7.64 -1.26, 8.61 -0.82 C9.59 -0.39, 9.98 0.76, 10.88 2.43 C11.78 4.1, 14.07 7.49, 14.01 9.21 C13.96 10.93, 11.85 12.02, 10.56 12.74 C9.26 13.46, 7.72 13.43, 6.24 13.53 C4.77 13.63, 2.88 14.4, 1.71 13.37 C0.54 12.34, -0.81 8.96, -0.77 7.34 C-0.72 5.73, 1.33 4.99, 1.98 3.65 C2.62 2.32, 2.98 -0.01, 3.1 -0.68 C3.22 -1.36, 2.67 -0.88, 2.68 -0.42" stroke="#0a11d3" stroke-width="1" fill="none"></path></g><g stroke-linecap="round" transform="translate(351.7831104353702 111.25065870310783) rotate(0 6.423028523489904 6.970952181208048)"><path d="M9.44 1.45 C10.86 2.17, 12.06 2.86, 12.73 4.27 C13.41 5.69, 14 8.48, 13.49 9.93 C12.97 11.38, 10.77 12.34, 9.63 12.99 C8.49 13.64, 8.07 14.19, 6.63 13.85 C5.19 13.52, 2.03 12.03, 1 10.99 C-0.02 9.94, 0.45 9, 0.49 7.58 C0.53 6.17, 0.57 3.81, 1.27 2.5 C1.96 1.19, 3.23 -0.03, 4.67 -0.3 C6.11 -0.57, 9.05 0.6, 9.9 0.87 C10.75 1.14, 9.75 1.36, 9.79 1.33 M7.18 0.35 C8.9 0.31, 11.34 0.5, 12.1 1.54 C12.86 2.59, 11.75 5.31, 11.73 6.62 C11.71 7.93, 12.66 8.3, 11.98 9.39 C11.3 10.49, 9.01 12.41, 7.67 13.17 C6.33 13.93, 5.28 14.2, 3.94 13.96 C2.6 13.72, 0.47 13.29, -0.38 11.72 C-1.23 10.15, -1.8 6.23, -1.15 4.52 C-0.5 2.81, 2.04 2.08, 3.5 1.46 C4.97 0.84, 6.89 0.85, 7.63 0.79 C8.38 0.72, 7.96 1.07, 7.98 1.05" stroke="none" stroke-width="0" fill="#fff"></path><path d="M3.65 1.11 C5.06 0.6, 7.39 0.66, 8.57 0.88 C9.75 1.1, 9.93 1.36, 10.73 2.43 C11.53 3.49, 13.42 5.67, 13.35 7.28 C13.28 8.88, 11.45 10.78, 10.32 12.04 C9.19 13.29, 7.82 14.73, 6.58 14.81 C5.33 14.89, 3.8 13.52, 2.85 12.54 C1.91 11.55, 1.44 10.24, 0.91 8.92 C0.39 7.6, -0.67 5.82, -0.3 4.6 C0.08 3.37, 2.43 2.35, 3.18 1.55 C3.92 0.74, 4.17 -0.05, 4.18 -0.23 M3.07 0.88 C3.88 -0.13, 5.69 -1.27, 7 -0.71 C8.31 -0.15, 9.74 2.89, 10.93 4.25 C12.12 5.61, 14.04 6.24, 14.14 7.44 C14.24 8.65, 12.82 10.55, 11.55 11.49 C10.28 12.44, 7.85 13.08, 6.51 13.12 C5.18 13.16, 4.79 12.25, 3.55 11.72 C2.31 11.2, -0.43 11.4, -0.93 9.96 C-1.43 8.52, -0.05 4.87, 0.53 3.1 C1.11 1.32, 2.19 -0.14, 2.55 -0.71 C2.92 -1.29, 2.34 -0.87, 2.74 -0.33" stroke="#0a11d3" stroke-width="1" fill="none"></path></g><g stroke-linecap="round" transform="translate(351.7831104353702 144.5114598776044) rotate(0 6.423028523489904 6.970952181208048)"><path d="M4.47 1.06 C5.79 0.51, 6.84 0.88, 8.21 1.15 C9.58 1.42, 11.89 1.43, 12.69 2.66 C13.49 3.89, 13.33 7.13, 13.03 8.54 C12.73 9.96, 12.04 10.19, 10.89 11.16 C9.75 12.14, 7.49 14.14, 6.16 14.4 C4.83 14.65, 3.94 13.65, 2.89 12.67 C1.84 11.68, 0.34 9.89, -0.12 8.49 C-0.58 7.09, -0.69 5.66, 0.12 4.27 C0.94 2.87, 3.77 0.68, 4.75 0.13 C5.73 -0.42, 6.09 0.82, 5.99 0.96 M4.6 1.85 C5.82 1.01, 7.1 -0.9, 8.45 -0.61 C9.8 -0.32, 12.19 2.25, 12.7 3.58 C13.22 4.92, 11.97 5.97, 11.54 7.4 C11.11 8.84, 10.91 11.29, 10.13 12.18 C9.35 13.08, 7.96 12.97, 6.89 12.77 C5.81 12.58, 4.99 11.6, 3.68 11.02 C2.37 10.43, -0.51 10.33, -0.99 9.25 C-1.47 8.17, -0.2 5.76, 0.8 4.52 C1.81 3.28, 4.3 2.28, 5.04 1.82 C5.77 1.35, 5.31 1.72, 5.21 1.74" stroke="none" stroke-width="0" fill="#fff"></path><path d="M3.81 1.55 C5.16 0.66, 7.34 -0.88, 8.59 -0.59 C9.83 -0.3, 10.56 2.11, 11.28 3.28 C11.99 4.46, 12.84 5.19, 12.87 6.47 C12.91 7.76, 12.3 9.79, 11.51 11.01 C10.72 12.22, 9.63 13.34, 8.14 13.74 C6.65 14.15, 3.93 14.34, 2.59 13.42 C1.25 12.51, 0.4 9.86, 0.1 8.24 C-0.2 6.62, 0.01 4.94, 0.77 3.69 C1.52 2.43, 4.23 1.36, 4.63 0.72 C5.02 0.08, 3.37 -0.09, 3.13 -0.14 M8.63 -0.82 C9.56 -0.49, 9.99 0.77, 10.88 2.44 C11.78 4.12, 14.07 7.5, 14.01 9.22 C13.95 10.94, 11.84 12.03, 10.55 12.75 C9.25 13.47, 7.7 13.43, 6.23 13.53 C4.75 13.63, 2.86 14.39, 1.7 13.36 C0.53 12.32, -0.82 8.95, -0.77 7.33 C-0.72 5.71, 1.34 4.98, 1.99 3.64 C2.63 2.3, 2.27 0.04, 3.11 -0.69 C3.95 -1.42, 6.34 -1.1, 7.03 -0.75 C7.72 -0.4, 6.85 1.32, 7.25 1.41" stroke="#0a11d3" stroke-width="1" fill="none"></path></g><g stroke-linecap="round"><g transform="translate(294.9581139285624 73.79471787320091) rotate(0 43.83789280373031 47.31696430598964)" fill-rule="evenodd"><path d="M1.69 1.91 L0.01 96.44 L2.53 99.97 L21.83 102.35 L48.67 103.82 L71.57 101.35 L79.27 100.12 L88.94 96.18 L87.13 -0.52 L87.87 0.39 L85.31 -4.03 L77.3 -7.42 L44.27 -7.36 L11.42 -5.69 L5.64 -5.41 L-0.81 0.66" stroke="none" stroke-width="0" fill="#228be6" fill-rule="evenodd"></path><path d="M0.28 -0.97 C0.12 13.11, -0.04 69.21, -0.14 85.4 C-0.24 101.58, -1.04 93.79, -0.32 96.15 C0.4 98.51, 0.62 98.36, 4.17 99.57 C7.73 100.77, 13.96 102.59, 21.02 103.4 C28.08 104.21, 38.02 104.54, 46.53 104.42 C55.03 104.3, 65.55 103.63, 72.03 102.66 C78.51 101.69, 82.87 99.66, 85.42 98.6 C87.97 97.55, 86.92 98.09, 87.33 96.33 C87.75 94.57, 87.87 102.8, 87.9 88.03 C87.93 73.27, 87.57 22.47, 87.52 7.73 C87.46 -7.02, 88.7 1.64, 87.58 -0.44 C86.47 -2.52, 83.7 -3.68, 80.83 -4.75 C77.97 -5.82, 76.71 -5.94, 70.39 -6.85 C64.07 -7.77, 51.15 -9.91, 42.91 -10.25 C34.68 -10.58, 27.43 -10.09, 20.99 -8.87 C14.55 -7.64, 7.66 -4.22, 4.27 -2.89 C0.88 -1.57, 1.28 -1.28, 0.67 -0.91 C0.06 -0.54, 0.54 -0.89, 0.6 -0.68 M-1.03 1.13 C-1.45 15.28, -1.28 70.51, -1.31 86.59 C-1.35 102.67, -2.19 95.32, -1.27 97.62 C-0.34 99.93, 0.7 99.4, 4.23 100.4 C7.76 101.4, 12.67 103.18, 19.92 103.65 C27.16 104.11, 38.94 102.99, 47.7 103.19 C56.46 103.38, 65.78 105.63, 72.45 104.8 C79.13 103.97, 84.99 99.73, 87.75 98.19 C90.51 96.65, 88.89 97.27, 89.02 95.57 C89.15 93.86, 88.77 102.42, 88.53 87.98 C88.3 73.55, 87.99 23.8, 87.61 8.98 C87.22 -5.84, 87.4 1.53, 86.22 -0.91 C85.05 -3.35, 83.26 -4.66, 80.54 -5.67 C77.83 -6.68, 76.15 -6.61, 69.95 -6.96 C63.75 -7.31, 51.33 -7.56, 43.35 -7.76 C35.37 -7.96, 28.75 -8.55, 22.07 -8.15 C15.39 -7.75, 6.99 -6.58, 3.27 -5.39 C-0.44 -4.19, 0.39 -1.76, -0.24 -1 C-0.86 -0.23, -0.25 -0.75, -0.47 -0.78" stroke="#0a11d3" stroke-width="1" fill="none"></path></g></g><mask></mask><g stroke-linecap="round"><g transform="translate(295.6454755180598 139.08484590398854) rotate(0 43.600110129994846 4.119572469701637)"><path d="M-0.97 -0.43 C-0.84 0.12, -0.6 2.36, 1.67 3.57 C3.94 4.78, 8.74 5.76, 12.66 6.81 C16.58 7.86, 19.58 9.52, 25.2 9.87 C30.81 10.21, 38.78 9.26, 46.36 8.89 C53.94 8.53, 64.24 8.66, 70.67 7.66 C77.1 6.66, 82.04 4.36, 84.95 2.91 C87.87 1.47, 87.42 -0.42, 88.17 -1.02 M0.72 -1.7 C1.16 -1, 2.15 3.32, 4.04 4.93 C5.93 6.54, 8.53 7.48, 12.05 7.94 C15.57 8.4, 19.11 7.49, 25.17 7.68 C31.23 7.86, 40.62 9.26, 48.41 9.05 C56.19 8.83, 65.72 7.08, 71.89 6.4 C78.06 5.71, 82.89 6.27, 85.42 4.92 C87.95 3.58, 86.57 -0.47, 87.07 -1.66" stroke="#0a11d3" stroke-width="1" fill="none"></path></g></g><mask></mask><g stroke-linecap="round"><g transform="translate(294.55173400599847 106.0106913419167) rotate(0 44.821260761182316 4.641582302687368)"><path d="M-0.43 -0.66 C-0.15 0.21, -0.08 2.99, 1.99 4.21 C4.06 5.43, 7.92 5.88, 11.99 6.67 C16.06 7.45, 20.71 8.51, 26.41 8.9 C32.11 9.28, 38.81 9.18, 46.17 8.98 C53.54 8.79, 64.19 8.69, 70.61 7.75 C77.03 6.81, 81.86 4.52, 84.71 3.35 C87.57 2.18, 87.18 1.24, 87.74 0.73 M1.54 1.61 C1.62 2.18, -0.72 1.22, 0.86 2.24 C2.45 3.26, 6.67 6.44, 11.03 7.71 C15.39 8.98, 20.84 9.62, 27.03 9.86 C33.21 10.11, 40.66 9.74, 48.12 9.18 C55.59 8.63, 65.65 7.74, 71.8 6.53 C77.96 5.32, 82.01 2.85, 85.05 1.93 C88.1 1.01, 89.27 1.44, 90.07 1.01" stroke="#0a11d3" stroke-width="1" fill="none"></path></g></g><mask></mask><g stroke-linecap="round" transform="translate(293.4309113198367 65.77002164610423) rotate(0 43.825373054270926 8.863351988406833)"><path d="M31.12 1.29 C39.45 0.77, 51.68 0.33, 60.4 0.76 C69.13 1.19, 79.17 2.14, 83.48 3.85 C87.8 5.56, 88.53 9.14, 86.27 11.05 C84.02 12.96, 77.28 14.24, 69.96 15.31 C62.63 16.38, 51.7 17.62, 42.31 17.47 C32.92 17.33, 20.53 15.74, 13.61 14.46 C6.69 13.17, 1.94 11.5, 0.81 9.77 C-0.31 8.05, 0.89 5.75, 6.86 4.13 C12.84 2.5, 30.44 0.59, 36.65 0 C42.87 -0.59, 43.92 0.51, 44.15 0.6 M40.04 -1.25 C49.01 -1.28, 61.04 0.39, 68.56 1.92 C76.09 3.44, 82.6 6.2, 85.17 7.91 C87.75 9.62, 87.65 10.52, 84 12.16 C80.36 13.81, 71.87 17.06, 63.31 17.8 C54.74 18.53, 41.78 17.38, 32.61 16.57 C23.44 15.77, 13.78 14.58, 8.28 12.96 C2.77 11.34, -1.11 8.36, -0.4 6.86 C0.3 5.36, 5.7 5.09, 12.53 3.97 C19.35 2.85, 36.21 0.98, 40.54 0.14 C44.87 -0.7, 38.44 -1.18, 38.51 -1.09" stroke="none" stroke-width="0" fill="#fff"></path><path d="M49.87 -0.15 C58.78 -0.02, 69.35 1.15, 75.58 2.53 C81.81 3.92, 86.8 6.22, 87.24 8.14 C87.69 10.07, 83.96 12.38, 78.27 14.1 C72.58 15.83, 62.2 17.94, 53.09 18.49 C43.98 19.04, 31.93 18.35, 23.6 17.39 C15.26 16.43, 6.66 14.6, 3.07 12.73 C-0.53 10.86, -0.66 8.08, 2.03 6.17 C4.73 4.26, 10.65 2.24, 19.24 1.27 C27.83 0.29, 47.31 0.62, 53.58 0.34 C59.85 0.06, 57.08 -0.38, 56.86 -0.4 M51.69 0.94 C60.23 1.27, 71.34 3.14, 77.4 4.72 C83.47 6.3, 87.99 8.7, 88.08 10.4 C88.17 12.11, 84.17 13.59, 77.94 14.96 C71.72 16.32, 60.07 18.15, 50.74 18.58 C41.41 19.01, 30.22 18.48, 21.96 17.53 C13.71 16.59, 4.47 15.01, 1.21 12.9 C-2.05 10.8, -1.03 7.06, 2.41 4.91 C5.85 2.75, 13.57 0.62, 21.86 -0.02 C30.15 -0.66, 47.13 1.11, 52.12 1.06 C57.12 1, 51.79 -0.39, 51.85 -0.34" stroke="#0a11d3" stroke-width="1" fill="none"></path></g><g stroke-linecap="round" transform="translate(364.9406436204173 90.34582452323781) rotate(0 6.423028523489904 6.970952181208048)"><path d="M7.44 0.1 C8.89 0.07, 10.04 1.77, 10.78 2.68 C11.53 3.58, 11.67 4.34, 11.91 5.52 C12.15 6.71, 12.9 8.45, 12.23 9.81 C11.57 11.16, 9.33 13.19, 7.93 13.66 C6.52 14.13, 5.19 13.11, 3.83 12.62 C2.48 12.13, 0.47 11.85, -0.2 10.7 C-0.87 9.56, -0.61 7.34, -0.18 5.76 C0.25 4.18, 1.2 2.1, 2.39 1.21 C3.58 0.32, 6.02 0.53, 6.95 0.43 C7.87 0.33, 7.99 0.61, 7.93 0.63 M3.36 0.31 C4.85 -0.4, 7.7 -0.88, 9.41 -0.24 C11.13 0.4, 13.16 2.59, 13.65 4.15 C14.13 5.71, 12.73 7.78, 12.31 9.13 C11.89 10.47, 12.35 11.41, 11.15 12.22 C9.94 13.02, 6.81 14.09, 5.1 13.96 C3.39 13.84, 1.95 12.49, 0.89 11.46 C-0.18 10.43, -1.56 8.99, -1.3 7.77 C-1.05 6.55, 1.39 5.57, 2.4 4.14 C3.41 2.72, 4.59 -0.33, 4.75 -0.78 C4.91 -1.22, 3.41 1.39, 3.37 1.47" stroke="none" stroke-width="0" fill="#fff"></path><path d="M5.22 -0.3 C6.52 -0.76, 8.28 -0.1, 9.45 0.65 C10.61 1.41, 11.75 2.85, 12.22 4.24 C12.7 5.64, 12.58 7.58, 12.3 9.02 C12.01 10.45, 11.58 12.12, 10.5 12.86 C9.42 13.6, 7.26 13.68, 5.82 13.44 C4.37 13.2, 2.82 12.66, 1.84 11.42 C0.86 10.18, -0.01 7.44, -0.08 6 C-0.14 4.57, 0.34 3.77, 1.44 2.8 C2.54 1.83, 5.7 0.59, 6.52 0.17 C7.34 -0.25, 6.5 0.12, 6.33 0.27 M9.26 -0.47 C10.6 0.16, 12.47 2.17, 13.27 3.83 C14.06 5.49, 14.44 7.98, 14.03 9.49 C13.63 11, 11.92 11.93, 10.83 12.87 C9.74 13.82, 8.7 15.4, 7.48 15.16 C6.26 14.91, 4.54 12.67, 3.52 11.41 C2.5 10.15, 1.95 9.1, 1.39 7.59 C0.82 6.08, -0.14 3.65, 0.13 2.36 C0.41 1.06, 1.5 0.27, 3.04 -0.18 C4.58 -0.63, 8.59 -0.58, 9.38 -0.37 C10.17 -0.15, 7.9 0.77, 7.77 1.1" stroke="#0a11d3" stroke-width="1" fill="none"></path></g><g stroke-linecap="round" transform="translate(364.9406436204173 120.94827838229827) rotate(0 6.423028523489904 6.970952181208048)"><path d="M4.19 0.59 C5.4 -0.3, 8.2 -1.01, 9.42 -0.5 C10.64 0.02, 11.08 2.35, 11.51 3.68 C11.93 5.01, 12.1 6.1, 11.97 7.48 C11.85 8.86, 11.78 11.05, 10.74 11.96 C9.7 12.87, 7.05 12.93, 5.73 12.96 C4.4 12.98, 3.71 12.88, 2.8 12.1 C1.9 11.33, 0.68 9.74, 0.29 8.31 C-0.09 6.88, -0.33 4.79, 0.48 3.51 C1.29 2.24, 4.26 1.28, 5.16 0.66 C6.06 0.04, 5.94 -0.16, 5.87 -0.21 M4.06 0.88 C5.01 0.73, 6.23 1.45, 7.57 1.79 C8.91 2.13, 11.15 1.75, 12.1 2.93 C13.05 4.11, 13.55 7.5, 13.26 8.89 C12.96 10.28, 11.42 10.61, 10.33 11.27 C9.23 11.94, 8.08 12.89, 6.69 12.86 C5.29 12.84, 3.02 11.65, 1.94 11.13 C0.86 10.6, 0.23 10.94, 0.21 9.72 C0.19 8.5, 1.36 5.55, 1.82 3.79 C2.28 2.04, 2.42 -0.23, 2.97 -0.81 C3.52 -1.38, 5.12 -0.14, 5.13 0.34" stroke="none" stroke-width="0" fill="#fff"></path><path d="M4.67 -0.14 C5.78 -0.54, 7.85 -0.21, 9.05 0.52 C10.26 1.24, 11.38 2.62, 11.88 4.21 C12.39 5.8, 12.44 8.52, 12.07 10.07 C11.69 11.62, 10.78 12.8, 9.63 13.5 C8.49 14.21, 6.51 14.62, 5.2 14.3 C3.88 13.98, 2.76 12.79, 1.76 11.59 C0.75 10.39, -0.82 8.56, -0.82 7.1 C-0.82 5.65, 0.63 4.19, 1.76 2.85 C2.89 1.51, 5.15 -0.35, 5.96 -0.94 C6.77 -1.53, 6.55 -1.1, 6.6 -0.71 M7.46 1.65 C8.99 2.07, 11.14 3.39, 12.27 4.45 C13.4 5.52, 14.37 6.6, 14.23 8.03 C14.09 9.45, 12.48 11.85, 11.43 13.02 C10.39 14.2, 9.6 14.94, 7.96 15.07 C6.31 15.2, 2.98 15, 1.56 13.79 C0.14 12.59, -0.21 9.7, -0.56 7.85 C-0.91 6.01, -1.17 3.79, -0.53 2.72 C0.11 1.65, 1.93 1.94, 3.28 1.42 C4.63 0.9, 6.64 -0.28, 7.57 -0.39 C8.5 -0.5, 8.68 0.51, 8.87 0.73" stroke="#0a11d3" stroke-width="1" fill="none"></path></g><g stroke-linecap="round" transform="translate(364.9406436204173 154.20907955679485) rotate(0 6.423028523489904 6.970952181208048)"><path d="M8.98 1.46 C9.93 1.83, 10.57 2.29, 11.25 3.33 C11.92 4.36, 13.27 6.12, 13.03 7.66 C12.78 9.2, 10.99 11.66, 9.8 12.57 C8.62 13.47, 7.36 13.1, 5.91 13.09 C4.47 13.09, 2.14 13.36, 1.11 12.52 C0.08 11.68, -0.23 9.67, -0.25 8.07 C-0.28 6.47, 0.2 4.15, 0.97 2.93 C1.74 1.7, 2.92 1.03, 4.37 0.72 C5.82 0.42, 8.87 1.07, 9.66 1.09 C10.44 1.11, 9.3 0.91, 9.09 0.83 M8.01 -0.72 C9.77 -0.5, 12.11 1.43, 12.86 2.81 C13.6 4.18, 12.6 6.16, 12.5 7.55 C12.39 8.94, 13.22 10.08, 12.23 11.14 C11.24 12.2, 8.26 13.68, 6.56 13.89 C4.87 14.11, 3.31 13.19, 2.05 12.43 C0.79 11.66, -0.93 10.47, -0.99 9.32 C-1.04 8.18, 0.99 7.14, 1.72 5.56 C2.45 3.97, 2.63 0.56, 3.39 -0.17 C4.16 -0.89, 5.67 1.32, 6.32 1.19 C6.97 1.05, 6.97 -0.76, 7.31 -0.98" stroke="none" stroke-width="0" fill="#fff"></path><path d="M7.97 -0.06 C9.23 0.25, 10.73 1.44, 11.51 2.67 C12.3 3.89, 12.64 5.79, 12.69 7.31 C12.74 8.84, 12.69 10.78, 11.81 11.82 C10.93 12.87, 8.9 13.43, 7.43 13.56 C5.96 13.7, 4.23 13.61, 3.01 12.64 C1.78 11.67, 0.51 9.15, 0.09 7.75 C-0.32 6.35, -0.12 5.42, 0.54 4.25 C1.19 3.09, 2.81 1.35, 4.02 0.74 C5.23 0.12, 7.09 0.47, 7.81 0.55 C8.54 0.64, 8.15 1.07, 8.38 1.27 M5.51 0.89 C6.79 0.69, 8.72 1.3, 9.83 1.83 C10.93 2.36, 11.5 2.82, 12.14 4.07 C12.79 5.32, 13.77 8.13, 13.7 9.33 C13.63 10.53, 12.72 10.63, 11.73 11.28 C10.74 11.93, 9.43 13.25, 7.75 13.22 C6.07 13.19, 3.13 12.05, 1.67 11.11 C0.22 10.18, -0.97 8.99, -0.96 7.6 C-0.96 6.22, 0.96 3.89, 1.7 2.8 C2.44 1.7, 3 1.31, 3.47 1.03 C3.94 0.75, 4.36 1.27, 4.51 1.13" stroke="#0a11d3" stroke-width="1" fill="none"></path></g><g stroke-linecap="round"><g transform="translate(305.05723061835795 93.15392659300505) rotate(0 43.873456200306066 47.79121962679912)" fill-rule="evenodd"><path d="M1.24 -1.22 L-2.23 96.9 L0.1 99.14 L20.08 103.16 L45.86 103.75 L72.87 101.66 L81.67 101.82 L89.5 98.53 L86.66 -2.81 L85.91 -0.62 L86.53 -4.18 L77.29 -4.44 L42.68 -8.62 L12.46 -5.92 L2 -1.76 L-0.71 0.15" stroke="none" stroke-width="0" fill="#228be6" fill-rule="evenodd"></path><path d="M-1.17 -0.06 C-0.82 14.43, 0.89 70.9, 0.99 86.86 C1.09 102.83, -1.08 93.44, -0.57 95.75 C-0.06 98.05, 0.62 99.22, 4.05 100.7 C7.47 102.19, 12.82 103.96, 19.97 104.63 C27.13 105.3, 38.06 104.92, 46.99 104.73 C55.91 104.54, 67.18 104.63, 73.52 103.49 C79.86 102.35, 82.78 99.12, 85.03 97.89 C87.28 96.66, 86.29 97.95, 87.01 96.11 C87.73 94.26, 88.99 101.76, 89.35 86.81 C89.7 71.87, 89.32 20.99, 89.14 6.44 C88.95 -8.12, 89.62 1.37, 88.24 -0.52 C86.86 -2.41, 83.93 -3.75, 80.84 -4.89 C77.76 -6.04, 75.9 -6.89, 69.73 -7.41 C63.57 -7.92, 52.01 -8.02, 43.85 -7.98 C35.69 -7.94, 27.38 -7.9, 20.76 -7.15 C14.14 -6.4, 7.55 -4.85, 4.13 -3.49 C0.72 -2.14, 1.11 0.39, 0.26 0.98 C-0.59 1.57, -0.93 0.08, -0.95 0.04 M0.41 -1.14 C0.76 13.03, 0.75 68.81, 0.41 85.17 C0.07 101.53, -2.25 94.79, -1.65 97.01 C-1.04 99.23, 0.1 97.66, 4.04 98.48 C7.97 99.29, 14.59 101.01, 21.98 101.87 C29.38 102.74, 40.22 103.57, 48.4 103.66 C56.58 103.75, 64.61 103.5, 71.07 102.4 C77.53 101.31, 84.25 98.3, 87.16 97.1 C90.07 95.9, 88.54 97.06, 88.53 95.23 C88.51 93.4, 87.43 100.82, 87.08 86.12 C86.72 71.42, 86.39 21.54, 86.41 7.01 C86.44 -7.51, 88.2 1.12, 87.23 -1.03 C86.25 -3.18, 83.61 -4.76, 80.56 -5.89 C77.52 -7.02, 75.52 -7.46, 68.94 -7.8 C62.37 -8.15, 48.99 -7.73, 41.12 -7.96 C33.24 -8.2, 28.05 -10.08, 21.71 -9.19 C15.36 -8.31, 6.82 -3.88, 3.06 -2.64 C-0.7 -1.41, -0.49 -2.27, -0.86 -1.77 C-1.23 -1.28, 0.56 0.14, 0.82 0.32" stroke="#0a11d3" stroke-width="1" fill="none"></path></g></g><mask></mask><g stroke-linecap="round"><g transform="translate(305.74459220785536 158.44405462379262) rotate(0 44.04450094122586 3.8942018215174983)"><path d="M-0.06 0.7 C0.48 1.45, 1.08 2.32, 3.14 3.32 C5.19 4.32, 8.39 5.77, 12.26 6.69 C16.12 7.6, 20.44 8.38, 26.33 8.82 C32.22 9.27, 40.15 9.3, 47.59 9.35 C55.04 9.41, 64.62 10.29, 70.98 9.15 C77.35 8.01, 83.04 4.27, 85.78 2.52 C88.53 0.78, 86.87 -1.04, 87.46 -1.34 M-1.55 0.02 C-1.09 1.02, 0.45 3.26, 2.62 4.55 C4.78 5.84, 7.39 6.88, 11.44 7.74 C15.48 8.61, 21.04 9.41, 26.91 9.74 C32.77 10.08, 39.06 9.93, 46.63 9.75 C54.21 9.57, 65.69 9.57, 72.37 8.67 C79.04 7.77, 83.8 6.14, 86.68 4.33 C89.56 2.53, 89.41 -1.43, 89.64 -2.15" stroke="#0a11d3" stroke-width="1" fill="none"></path></g></g><mask></mask><g stroke-linecap="round"><g transform="translate(304.650850695794 125.36990006172084) rotate(0 44.59336894298116 5.18604938582169)"><path d="M0.7 0.81 C1.18 1.46, -0.12 2.64, 1.74 3.8 C3.6 4.97, 7.93 6.75, 11.86 7.8 C15.8 8.86, 19.57 9.89, 25.37 10.13 C31.16 10.38, 38.84 9.55, 46.63 9.29 C54.42 9.03, 65.82 9.68, 72.1 8.58 C78.38 7.47, 81.77 3.98, 84.33 2.64 C86.88 1.29, 86.55 1.1, 87.41 0.51 M-0.39 0.19 C0.6 1.04, 2.27 4.35, 4.14 5.28 C6.02 6.22, 7.29 5.32, 10.84 5.79 C14.39 6.26, 19.71 7.44, 25.43 8.09 C31.15 8.73, 37.67 9.7, 45.16 9.66 C52.66 9.61, 63.86 8.65, 70.41 7.79 C76.96 6.93, 81.27 5.69, 84.46 4.5 C87.66 3.32, 88.92 1.23, 89.58 0.67" stroke="#0a11d3" stroke-width="1" fill="none"></path></g></g><mask></mask><g stroke-linecap="round" transform="translate(303.53002800963225 85.12923036590837) rotate(0 43.825373054270926 8.863351988406833)"><path d="M28.76 0.76 C37.05 -0.09, 50.7 -0.24, 59.38 0.53 C68.06 1.3, 76.32 3.73, 80.86 5.38 C85.41 7.04, 88.02 8.63, 86.64 10.46 C85.26 12.3, 79.65 15.14, 72.57 16.38 C65.49 17.63, 53.52 18.06, 44.17 17.96 C34.82 17.85, 23.84 17.09, 16.45 15.75 C9.05 14.41, 1.72 11.85, -0.18 9.94 C-2.07 8.03, -0.98 5.95, 5.07 4.28 C11.11 2.61, 29.53 0.59, 36.08 -0.08 C42.64 -0.74, 44.28 -0.01, 44.4 0.29 M36.31 0.48 C44.92 0, 55.62 0.09, 63.68 1.07 C71.75 2.04, 81.16 4.55, 84.72 6.33 C88.27 8.11, 88.09 10.19, 85 11.77 C81.91 13.36, 74.06 14.73, 66.18 15.84 C58.3 16.95, 46.76 18.65, 37.69 18.42 C28.63 18.18, 17.96 15.95, 11.79 14.45 C5.63 12.95, 1.01 11.44, 0.72 9.4 C0.43 7.36, 4.52 3.9, 10.05 2.2 C15.59 0.51, 29.63 -0.72, 33.92 -0.78 C38.21 -0.85, 35.54 1.36, 35.77 1.82" stroke="none" stroke-width="0" fill="#fff"></path><path d="M41.64 0.81 C50.59 0.53, 62.87 0.7, 70.52 1.79 C78.16 2.88, 85.61 5.61, 87.5 7.36 C89.4 9.1, 86.5 10.5, 81.89 12.25 C77.28 14, 68.22 17.07, 59.84 17.85 C51.47 18.63, 40.29 17.75, 31.62 16.94 C22.95 16.13, 12.94 14.54, 7.84 12.97 C2.74 11.41, 0.08 9.38, 1.01 7.56 C1.94 5.74, 5.84 3.37, 13.41 2.06 C20.99 0.75, 40.02 -0.17, 46.46 -0.31 C52.89 -0.45, 52.07 0.92, 52.03 1.21 M51.57 -1.09 C60.45 -0.97, 70.53 1.4, 76.69 3.18 C82.84 4.95, 88.43 7.94, 88.52 9.55 C88.61 11.17, 83.05 11.7, 77.22 12.88 C71.4 14.07, 62.52 16.07, 53.57 16.67 C44.62 17.27, 32 17.38, 23.52 16.48 C15.03 15.58, 6.35 12.96, 2.68 11.27 C-0.99 9.59, -1.39 7.9, 1.49 6.36 C4.36 4.82, 11.67 2.86, 19.91 2.04 C28.15 1.21, 45.7 1.86, 50.92 1.39 C56.13 0.92, 51.58 -0.51, 51.17 -0.78" stroke="#0a11d3" stroke-width="1" fill="none"></path></g><g stroke-linecap="round" transform="translate(375.0397603102127 109.7050332430419) rotate(0 6.423028523489904 6.970952181208048)"><path d="M6.79 0.62 C7.98 0.42, 9.5 0.02, 10.66 0.84 C11.81 1.67, 13.51 3.85, 13.73 5.56 C13.95 7.27, 12.74 9.74, 11.99 11.12 C11.23 12.5, 10.5 13.34, 9.22 13.86 C7.95 14.37, 5.72 14.94, 4.32 14.21 C2.93 13.48, 1.66 11.03, 0.88 9.47 C0.1 7.91, -0.58 6.27, -0.35 4.83 C-0.12 3.39, 1.04 1.74, 2.24 0.83 C3.44 -0.07, 5.96 -0.36, 6.86 -0.58 C7.75 -0.8, 7.48 -0.64, 7.62 -0.49 M4.62 -0.79 C5.82 -1.51, 7.34 -0.15, 8.69 0.52 C10.04 1.19, 12.04 2.01, 12.72 3.24 C13.41 4.46, 13.27 6.26, 12.8 7.86 C12.33 9.47, 10.83 11.7, 9.88 12.86 C8.94 14.03, 8.44 14.81, 7.12 14.83 C5.8 14.84, 3.07 14.01, 1.96 12.95 C0.84 11.9, 0.77 10.33, 0.41 8.52 C0.05 6.7, -0.7 3.38, -0.21 2.09 C0.28 0.79, 2.35 1.14, 3.36 0.75 C4.37 0.36, 5.48 -0.47, 5.84 -0.25" stroke="none" stroke-width="0" fill="#fff"></path><path d="M5.91 0.15 C7.08 -0.03, 8.26 1.14, 9.41 1.72 C10.56 2.29, 12.39 2.46, 12.8 3.58 C13.2 4.69, 12.18 6.68, 11.82 8.4 C11.45 10.12, 11.72 12.8, 10.61 13.88 C9.49 14.95, 6.74 15.12, 5.13 14.85 C3.53 14.58, 1.86 13.66, 0.98 12.25 C0.11 10.84, -0.16 8, -0.14 6.38 C-0.12 4.76, 0.17 3.43, 1.1 2.53 C2.04 1.63, 4.42 1.4, 5.46 0.98 C6.51 0.56, 7.22 0, 7.39 0.01 M5.74 0.07 C7.02 0.03, 9.78 2, 11.12 2.89 C12.45 3.78, 13.89 3.89, 13.74 5.4 C13.59 6.9, 11.3 10.44, 10.22 11.92 C9.14 13.4, 8.36 14.11, 7.26 14.28 C6.15 14.45, 4.82 13.78, 3.58 12.94 C2.33 12.09, 0.29 10.64, -0.22 9.19 C-0.73 7.74, -0.09 5.43, 0.51 4.21 C1.12 3, 2.14 2.45, 3.43 1.92 C4.71 1.39, 7.82 1.52, 8.23 1.04 C8.64 0.56, 6.29 -0.89, 5.87 -0.97" stroke="#0a11d3" stroke-width="1" fill="none"></path></g><g stroke-linecap="round" transform="translate(375.0397603102127 140.30748710210236) rotate(0 6.423028523489904 6.970952181208048)"><path d="M9.39 0.48 C10.49 1.03, 10.68 3.27, 11.17 4.59 C11.67 5.92, 12.4 6.99, 12.37 8.42 C12.33 9.85, 11.93 12.2, 10.96 13.16 C9.99 14.12, 7.89 14.32, 6.55 14.17 C5.21 14.03, 4.14 13.39, 2.92 12.29 C1.7 11.18, -0.32 9.06, -0.78 7.54 C-1.24 6.02, -0.58 4.41, 0.16 3.18 C0.91 1.95, 2.24 0.55, 3.67 0.17 C5.11 -0.21, 7.86 0.59, 8.77 0.9 C9.69 1.2, 9.18 2.03, 9.17 2 M5.31 -0.02 C6.45 -0.03, 9.48 1.38, 10.67 2.37 C11.85 3.36, 12.28 4.64, 12.42 5.9 C12.57 7.16, 12.09 8.52, 11.53 9.93 C10.97 11.33, 10.12 13.79, 9.04 14.34 C7.96 14.89, 6.3 13.83, 5.05 13.23 C3.8 12.63, 2.29 12.16, 1.54 10.72 C0.79 9.28, 0.63 6.25, 0.55 4.57 C0.46 2.88, -0.01 1.14, 1.04 0.63 C2.09 0.11, 6.08 1.4, 6.86 1.48 C7.64 1.56, 5.61 1.23, 5.72 1.11" stroke="none" stroke-width="0" fill="#fff"></path><path d="M8.07 0.19 C9.55 0.4, 11.91 2.26, 12.56 3.37 C13.22 4.48, 12.41 5.3, 12.02 6.85 C11.63 8.4, 10.91 11.57, 10.23 12.69 C9.56 13.8, 9.07 13.65, 7.98 13.54 C6.9 13.43, 4.92 12.86, 3.73 12.04 C2.55 11.23, 1.51 10.03, 0.86 8.65 C0.2 7.27, -0.67 5.16, -0.22 3.77 C0.23 2.39, 1.93 0.74, 3.56 0.34 C5.2 -0.07, 8.69 1.17, 9.59 1.34 C10.5 1.52, 9.15 1.41, 9.01 1.39 M7.3 0.25 C8.54 0.69, 11.26 2.36, 12.04 3.18 C12.81 4, 11.85 3.97, 11.93 5.16 C12.01 6.35, 13.1 8.92, 12.52 10.33 C11.93 11.73, 9.98 13.27, 8.41 13.6 C6.84 13.93, 4.54 12.93, 3.09 12.32 C1.64 11.71, 0.35 11.08, -0.28 9.96 C-0.91 8.84, -1.35 6.88, -0.71 5.62 C-0.06 4.35, 2.09 3.5, 3.59 2.4 C5.09 1.29, 7.85 -0.43, 8.27 -0.99 C8.69 -1.56, 6.32 -1.42, 6.1 -0.99" stroke="#0a11d3" stroke-width="1" fill="none"></path></g><g stroke-linecap="round" transform="translate(375.0397603102127 173.568288276599) rotate(0 6.423028523489904 6.97095218120802)"><path d="M6.37 -0.89 C7.8 -1.15, 10.4 0.05, 11.47 1.24 C12.55 2.43, 12.6 4.66, 12.81 6.23 C13.03 7.81, 13.4 9.35, 12.75 10.69 C12.1 12.03, 10.3 13.91, 8.9 14.25 C7.5 14.58, 5.78 13.44, 4.37 12.69 C2.95 11.94, 1.15 10.99, 0.41 9.73 C-0.33 8.47, -0.35 6.56, -0.07 5.12 C0.2 3.67, 0.73 2, 2.06 1.06 C3.39 0.11, 6.61 -0.46, 7.9 -0.57 C9.19 -0.69, 9.96 0.14, 9.8 0.38 M8.68 0.51 C9.99 1.07, 12.03 2, 12.71 3.22 C13.4 4.45, 13.27 6.24, 12.8 7.85 C12.33 9.45, 10.84 11.69, 9.9 12.85 C8.95 14.02, 8.45 14.81, 7.13 14.83 C5.81 14.85, 3.09 14.02, 1.97 12.97 C0.85 11.92, 0.78 10.34, 0.41 8.53 C0.05 6.72, -0.71 3.4, -0.22 2.1 C0.27 0.81, 1.61 1.16, 3.35 0.76 C5.08 0.36, 9.13 -0.46, 10.17 -0.32 C11.22 -0.18, 9.89 1.35, 9.62 1.6" stroke="none" stroke-width="0" fill="#fff"></path><path d="M5.46 0.96 C6.67 0.54, 9.15 -0.27, 10.21 0.24 C11.27 0.76, 11.32 2.33, 11.81 4.05 C12.31 5.76, 13.64 8.86, 13.19 10.54 C12.73 12.21, 10.54 13.45, 9.08 14.09 C7.63 14.74, 5.77 15.03, 4.46 14.43 C3.15 13.82, 2.02 11.77, 1.23 10.47 C0.44 9.17, -0.28 7.82, -0.27 6.62 C-0.25 5.42, 0.02 4.4, 1.31 3.28 C2.59 2.15, 6.31 0.32, 7.45 -0.13 C8.58 -0.59, 8.25 0.36, 8.12 0.54 M9.28 1.52 C10.86 1.87, 12.84 1.7, 13.15 3.07 C13.46 4.43, 11.79 8.02, 11.15 9.72 C10.5 11.41, 10.17 12.6, 9.27 13.24 C8.37 13.88, 7.1 13.89, 5.74 13.54 C4.37 13.2, 1.97 12.32, 1.07 11.16 C0.17 10.01, 0.21 7.88, 0.34 6.63 C0.47 5.37, 0.92 4.54, 1.86 3.64 C2.81 2.75, 4.98 1.96, 6.01 1.27 C7.04 0.58, 7.73 -0.38, 8.04 -0.5 C8.35 -0.62, 7.58 0.43, 7.86 0.55" stroke="#0a11d3" stroke-width="1" fill="none"></path></g><g stroke-linecap="round"><g transform="translate(313.7940514285623 349.3923741232006) rotate(0 43.87895669499926 48.03353445818351)" fill-rule="evenodd"><path d="M-1.5 -1.91 L-1.67 94.61 L1.32 99.61 L20.29 105.22 L48.94 105.16 L70.81 101.54 L79.14 101.09 L86.4 98.34 L86.66 -0.63 L87.06 0.87 L85.8 -2.88 L77.13 -4.87 L43.57 -9.88 L11.52 -6.25 L5.49 -2.09 L1.21 -1.4" stroke="none" stroke-width="0" fill="#228be6" fill-rule="evenodd"></path><path d="M-1.12 0.74 C-1.19 15.27, -0.14 70.57, -0.01 86.36 C0.12 102.14, -1.01 93.04, -0.33 95.43 C0.35 97.83, 0.73 99.29, 4.07 100.73 C7.4 102.16, 12.56 103.27, 19.69 104.03 C26.81 104.8, 38.05 105.5, 46.83 105.31 C55.61 105.13, 65.75 104.08, 72.37 102.91 C78.99 101.73, 83.95 99.63, 86.56 98.26 C89.16 96.9, 87.69 96.58, 88.02 94.73 C88.34 92.88, 88.62 101.88, 88.5 87.18 C88.38 72.48, 87.44 21, 87.29 6.54 C87.15 -7.92, 88.34 2.49, 87.61 0.44 C86.88 -1.61, 85.91 -4.36, 82.91 -5.75 C79.9 -7.14, 76.31 -7.51, 69.59 -7.88 C62.86 -8.25, 50.47 -8.08, 42.54 -7.95 C34.61 -7.82, 28.66 -7.72, 22.02 -7.1 C15.39 -6.49, 6.35 -5.39, 2.74 -4.26 C-0.88 -3.12, 0.79 -1, 0.34 -0.31 C-0.12 0.39, -0.04 0.01, 0.02 -0.1 M0.5 0.08 C0.21 14.31, -0.82 68.32, -1.12 84.39 C-1.42 100.47, -2.15 94.18, -1.28 96.53 C-0.42 98.88, 0.26 97.16, 4.06 98.51 C7.87 99.85, 14.2 103.61, 21.55 104.61 C28.89 105.62, 39.59 105.07, 48.16 104.55 C56.73 104.04, 66.69 102.66, 72.97 101.51 C79.25 100.36, 83.59 98.46, 85.83 97.67 C88.07 96.88, 85.8 98.62, 86.4 96.79 C87.01 94.95, 89.3 101.62, 89.44 86.69 C89.58 71.75, 87.79 21.55, 87.27 7.17 C86.74 -7.21, 87.47 2.21, 86.27 0.43 C85.06 -1.35, 82.97 -2.04, 80.05 -3.53 C77.13 -5.03, 74.93 -7.8, 68.72 -8.53 C62.51 -9.26, 50.9 -7.82, 42.78 -7.92 C34.66 -8.02, 26.34 -9.81, 19.98 -9.12 C13.61 -8.43, 8.05 -5.31, 4.6 -3.81 C1.14 -2.3, 0.24 -0.72, -0.75 -0.07 C-1.74 0.58, -1.74 0.03, -1.35 0.11" stroke="#0a11d3" stroke-width="1" fill="none"></path></g></g><mask></mask><g stroke-linecap="round"><g transform="translate(314.4814130180597 414.68250215398814) rotate(0 43.74666736186623 4.093454171793894)"><path d="M0.74 -0.3 C1.32 0.48, 0.76 2.39, 2.63 3.56 C4.5 4.73, 7.99 5.88, 11.94 6.71 C15.9 7.54, 20.51 8.12, 26.35 8.54 C32.2 8.95, 39.46 9.28, 46.99 9.19 C54.53 9.1, 65.2 8.86, 71.57 8 C77.93 7.14, 82.49 5.44, 85.2 4.05 C87.91 2.66, 87.38 0.36, 87.83 -0.34 M-0.34 -1.51 C0.19 -0.46, -0.04 3.37, 1.84 4.91 C3.73 6.46, 6.78 7.04, 10.96 7.77 C15.14 8.51, 21.15 9.02, 26.94 9.31 C32.73 9.6, 38.6 9.9, 45.71 9.5 C52.82 9.1, 62.92 8, 69.6 6.92 C76.28 5.83, 82.96 4.26, 85.79 3.01 C88.62 1.75, 85.91 0.11, 86.56 -0.62" stroke="#0a11d3" stroke-width="1" fill="none"></path></g></g><mask></mask><g stroke-linecap="round"><g transform="translate(313.3876715059986 381.6083475919164) rotate(0 44.060171918553806 4.914448905900315)"><path d="M-0.3 0.3 C0.21 0.76, -0.05 2.23, 1.98 3.49 C4.01 4.74, 8.03 6.82, 11.88 7.82 C15.73 8.83, 19.32 9.19, 25.08 9.53 C30.85 9.88, 38.83 10.14, 46.47 9.88 C54.12 9.62, 64.39 9.14, 70.95 7.99 C77.51 6.85, 82.94 4.49, 85.86 3.01 C88.77 1.53, 87.96 -0.28, 88.42 -0.87 M1.74 -0.58 C2.16 -0.02, -0.67 3.74, 0.85 4.81 C2.37 5.87, 6.84 4.82, 10.87 5.82 C14.89 6.82, 19.32 10.04, 25 10.83 C30.67 11.62, 37.03 11.21, 44.92 10.55 C52.81 9.9, 65.34 7.81, 72.32 6.9 C79.3 5.99, 84.27 6.46, 86.8 5.08 C89.32 3.69, 87.4 -0.26, 87.46 -1.43" stroke="#0a11d3" stroke-width="1" fill="none"></path></g></g><mask></mask><g stroke-linecap="round" transform="translate(312.2668488198368 341.36767789610394) rotate(0 43.825373054270926 8.863351988406805)"><path d="M43.08 -0.4 C52.01 -0.68, 63.81 0.38, 71.23 1.76 C78.66 3.14, 85.67 6.12, 87.62 7.89 C89.58 9.66, 87.6 10.71, 82.96 12.39 C78.32 14.07, 68.51 17.14, 59.77 17.95 C51.03 18.77, 39.34 18.05, 30.5 17.28 C21.66 16.51, 11.86 14.91, 6.71 13.35 C1.57 11.78, -1.76 9.79, -0.37 7.89 C1.02 5.99, 6.33 3.07, 15.05 1.93 C23.77 0.8, 44.41 1.41, 51.95 1.07 C59.49 0.73, 60.38 -0.07, 60.29 -0.12 M36.18 -0.07 C44.62 -0.71, 57.37 0.22, 65.73 1.08 C74.09 1.94, 83.1 3.33, 86.35 5.08 C89.6 6.82, 88.87 9.46, 85.26 11.54 C81.65 13.62, 73.09 16.54, 64.7 17.56 C56.3 18.58, 43.96 18.26, 34.88 17.64 C25.8 17.02, 16.21 15.35, 10.24 13.86 C4.27 12.36, -0.99 10.25, -0.97 8.68 C-0.94 7.1, 4.17 5.76, 10.37 4.41 C16.58 3.07, 31.76 1.19, 36.26 0.6 C40.76 0.01, 37.11 0.62, 37.37 0.85" stroke="none" stroke-width="0" fill="#fff"></path><path d="M35.72 0.44 C44.45 0, 57.43 0.75, 65.64 1.63 C73.84 2.52, 81.64 4.11, 84.95 5.76 C88.25 7.4, 88.66 9.76, 85.47 11.5 C82.28 13.24, 73.98 15.19, 65.81 16.19 C57.64 17.2, 45.82 17.89, 36.46 17.52 C27.11 17.16, 15.74 15.33, 9.68 13.99 C3.62 12.66, -0.14 11.48, 0.11 9.51 C0.36 7.54, 4.34 3.88, 11.18 2.18 C18.02 0.48, 35.28 -0.53, 41.16 -0.71 C47.03 -0.88, 46.18 0.76, 46.41 1.13 M25.12 0.84 C33.08 0.05, 46.28 0.87, 55.19 1.18 C64.1 1.48, 73.45 1.44, 78.59 2.68 C83.73 3.92, 86.8 6.51, 86.03 8.59 C85.27 10.68, 80.25 13.67, 73.99 15.19 C67.72 16.7, 57.48 17.28, 48.44 17.68 C39.39 18.07, 27.52 18.87, 19.74 17.58 C11.95 16.28, 4.52 12.17, 1.74 9.9 C-1.04 7.62, -0.89 5.61, 3.08 3.92 C7.04 2.24, 21.58 0.45, 25.52 -0.21 C29.45 -0.88, 26.31 -0.32, 26.68 -0.07" stroke="#0a11d3" stroke-width="1" fill="none"></path></g><g stroke-linecap="round" transform="translate(383.77658112041706 365.9434807732374) rotate(0 6.423028523489904 6.97095218120802)"><path d="M5.91 0.15 C7.09 0.11, 9.03 1.39, 10.3 2.41 C11.57 3.42, 13.35 4.94, 13.52 6.24 C13.7 7.54, 12 8.9, 11.34 10.2 C10.69 11.5, 10.74 13.43, 9.58 14.03 C8.41 14.63, 5.81 14.52, 4.34 13.8 C2.88 13.08, 1.43 10.99, 0.77 9.71 C0.11 8.44, 0.22 7.42, 0.41 6.17 C0.6 4.93, 0.62 3.14, 1.91 2.24 C3.2 1.34, 7.29 0.95, 8.17 0.77 C9.05 0.59, 7.41 1.2, 7.21 1.15 M7.94 -0.82 C8.97 -0.17, 10.82 2.42, 11.46 3.94 C12.11 5.46, 12.01 6.96, 11.83 8.29 C11.64 9.63, 11.02 11.04, 10.36 11.95 C9.7 12.87, 9.11 13.55, 7.85 13.79 C6.6 14.04, 4.17 14.43, 2.81 13.43 C1.45 12.42, 0.05 9.45, -0.3 7.76 C-0.66 6.08, -0.24 4.69, 0.67 3.31 C1.59 1.93, 3.85 0.01, 5.17 -0.53 C6.49 -1.07, 8.03 -0.05, 8.62 0.06 C9.2 0.16, 8.6 -0.18, 8.66 0.1" stroke="none" stroke-width="0" fill="#fff"></path><path d="M5.46 0.01 C6.71 -0.28, 8.8 -0.03, 9.94 0.78 C11.09 1.6, 11.96 3.48, 12.33 4.9 C12.69 6.32, 12.6 7.91, 12.11 9.29 C11.63 10.68, 10.54 12.53, 9.42 13.2 C8.3 13.87, 6.79 13.56, 5.39 13.31 C4 13.06, 1.83 12.56, 1.04 11.69 C0.25 10.81, 0.76 9.6, 0.66 8.05 C0.55 6.49, -0.31 3.72, 0.42 2.36 C1.15 1.01, 3.88 0.11, 5.03 -0.1 C6.17 -0.32, 7.05 1.07, 7.28 1.06 M4.94 0.07 C6.25 -0.5, 9.1 -0.94, 10.14 -0.49 C11.18 -0.05, 10.96 1.29, 11.18 2.74 C11.41 4.19, 11.71 6.38, 11.51 8.21 C11.32 10.04, 10.98 12.57, 10.01 13.71 C9.04 14.86, 6.82 15.34, 5.69 15.07 C4.56 14.79, 4.39 13.52, 3.24 12.06 C2.09 10.61, -0.69 7.84, -1.22 6.32 C-1.75 4.79, -0.76 3.79, 0.09 2.92 C0.94 2.04, 3.24 1.42, 3.88 1.07 C4.51 0.73, 3.75 0.71, 3.89 0.83" stroke="#0a11d3" stroke-width="1" fill="none"></path></g><g stroke-linecap="round" transform="translate(383.77658112041706 396.5459346322979) rotate(0 6.423028523489904 6.97095218120802)"><path d="M8.26 0.08 C9.61 0.57, 11.69 2.65, 12.56 3.79 C13.42 4.93, 13.72 5.41, 13.43 6.91 C13.13 8.4, 11.79 11.6, 10.8 12.77 C9.81 13.94, 8.82 13.97, 7.51 13.93 C6.2 13.88, 4.32 13.32, 2.96 12.52 C1.6 11.71, -0.29 10.55, -0.64 9.08 C-0.98 7.61, 0.08 4.95, 0.9 3.7 C1.71 2.45, 2.8 2.25, 4.26 1.58 C5.71 0.9, 8.61 -0.24, 9.63 -0.35 C10.65 -0.47, 10.58 0.53, 10.37 0.88 M8.06 0.41 C9.65 0.79, 12.3 1.73, 13.18 3.02 C14.05 4.32, 13.82 6.42, 13.32 8.18 C12.81 9.94, 11.41 12.6, 10.15 13.57 C8.89 14.55, 7 14.37, 5.75 14.01 C4.5 13.65, 3.77 12.46, 2.65 11.4 C1.54 10.34, -0.59 8.82, -0.96 7.65 C-1.32 6.49, -0.29 5.57, 0.47 4.42 C1.23 3.27, 2.17 1.28, 3.58 0.74 C4.99 0.21, 8.07 1.05, 8.94 1.23 C9.81 1.41, 8.67 1.73, 8.79 1.82" stroke="none" stroke-width="0" fill="#fff"></path><path d="M7.99 0.69 C9.35 0.92, 10.75 1.84, 11.64 2.93 C12.52 4.02, 13.39 5.78, 13.29 7.22 C13.19 8.66, 12.05 10.47, 11.03 11.58 C10.02 12.68, 8.7 13.77, 7.22 13.85 C5.74 13.94, 3.3 12.84, 2.15 12.09 C1 11.35, 0.42 10.9, 0.32 9.39 C0.21 7.87, 1 4.58, 1.53 3 C2.05 1.43, 2.32 0.19, 3.49 -0.08 C4.65 -0.36, 7.42 1.12, 8.51 1.37 C9.61 1.62, 10.19 1.54, 10.04 1.42 M7.32 0.96 C8.48 0.9, 9.38 0.48, 10.06 1.29 C10.74 2.09, 11.31 4.11, 11.41 5.8 C11.51 7.48, 11.15 10.07, 10.68 11.41 C10.2 12.74, 9.61 13.28, 8.57 13.8 C7.53 14.32, 5.77 15.46, 4.46 14.53 C3.15 13.6, 1.57 10.05, 0.7 8.22 C-0.16 6.38, -1.15 4.89, -0.74 3.52 C-0.32 2.14, 1.7 0.7, 3.21 -0.05 C4.72 -0.79, 7.54 -0.95, 8.32 -0.96 C9.11 -0.97, 7.94 -0.44, 7.93 -0.09" stroke="#0a11d3" stroke-width="1" fill="none"></path></g><g stroke-linecap="round" transform="translate(383.77658112041706 429.80673580679456) rotate(0 6.423028523489904 6.97095218120802)"><path d="M7.64 1.02 C9.13 1.31, 11.56 2.31, 12.31 3.32 C13.06 4.34, 12.19 5.63, 12.14 7.11 C12.09 8.6, 12.82 11.05, 12.01 12.22 C11.2 13.39, 8.81 14.16, 7.28 14.12 C5.75 14.08, 3.94 12.8, 2.83 12.01 C1.72 11.22, 1.07 10.56, 0.63 9.37 C0.19 8.17, -0.44 6.15, 0.19 4.84 C0.81 3.53, 3.07 2.1, 4.38 1.51 C5.7 0.93, 7.18 1.41, 8.07 1.33 C8.97 1.25, 9.58 0.92, 9.78 1.04 M3.59 1.53 C4.62 1.17, 5.96 0.7, 7.22 0.96 C8.49 1.23, 10.1 2.02, 11.18 3.12 C12.26 4.23, 13.74 5.99, 13.71 7.6 C13.67 9.2, 12.19 11.87, 10.96 12.77 C9.74 13.66, 7.72 13.08, 6.34 12.94 C4.96 12.8, 3.48 12.83, 2.69 11.91 C1.9 11, 1.87 8.83, 1.62 7.46 C1.36 6.09, 0.7 4.9, 1.16 3.71 C1.63 2.51, 3.79 0.67, 4.41 0.31 C5.04 -0.05, 4.9 1.34, 4.93 1.54" stroke="none" stroke-width="0" fill="#fff"></path><path d="M5.2 0.17 C6.38 -0.19, 7.95 0.46, 9.05 1.12 C10.16 1.78, 11.31 2.8, 11.84 4.12 C12.38 5.44, 12.58 7.71, 12.28 9.04 C11.98 10.38, 11.21 11.29, 10.04 12.12 C8.88 12.95, 6.55 13.91, 5.3 14.02 C4.05 14.14, 3.58 13.93, 2.54 12.81 C1.5 11.7, -0.61 8.99, -0.96 7.33 C-1.31 5.67, -0.84 3.9, 0.44 2.84 C1.72 1.77, 5.56 1.55, 6.72 0.96 C7.89 0.36, 7.68 -0.73, 7.45 -0.71 M6.61 -1.18 C7.71 -1.64, 8.07 -1.17, 8.88 -0.25 C9.7 0.67, 10.95 2.49, 11.52 4.32 C12.1 6.15, 12.71 9.06, 12.33 10.74 C11.94 12.42, 10.22 13.86, 9.23 14.4 C8.23 14.95, 7.88 14.76, 6.35 14.02 C4.81 13.28, 1.25 11.22, 0 9.98 C-1.25 8.74, -1.28 7.73, -1.15 6.57 C-1.02 5.41, -0.21 4.02, 0.77 3.01 C1.74 2.01, 3.92 0.86, 4.69 0.54 C5.47 0.22, 5.2 1.07, 5.44 1.09" stroke="#0a11d3" stroke-width="1" fill="none"></path></g><g stroke-linecap="round" transform="translate(10.721842479032034 241.23929555011114) rotate(0 63.941917866069446 38.268516949888806)"><path d="M1.98 -0.43 C41 2.73, 81.7 -0.61, 127.45 -1.64 M0.69 0.71 C29.1 0.78, 58.01 1.7, 128.83 0.69 M127.41 -0.71 C128.03 19.5, 129.9 40.01, 127.43 78.32 M128.25 -0.89 C127.15 27.13, 128.19 53.44, 127.47 77.11 M128.6 78.19 C78.4 76.08, 29.55 78.46, -1.65 74.68 M127.18 76.25 C78.32 77.14, 27.01 77.58, -0.45 76.42 M1.71 77.22 C-0.25 57.15, 0.04 34.48, -0.42 1.62 M0.85 77.06 C-0.33 49.69, 0.6 23.98, -0.98 0.27" stroke="#000000" stroke-width="1" fill="none"></path></g><g stroke-linecap="round"><g transform="translate(9.646244728136821 251.9558299423553) rotate(0 64.58950092768117 -0.23204109026607966)"><path d="M1.19 -0.26 C22.8 0.08, 107.58 1.09, 128.83 0.96 M0.35 -1.44 C21.88 -1.33, 106.63 -0.85, 127.87 -0.65" stroke="#000000" stroke-width="1" fill="none"></path></g></g><mask></mask><g stroke-linecap="round" transform="translate(15.20987794798691 245.51086535011996) rotate(0 2.5009765625 2.5009765625)"><path d="M5 2.5 C5 2.65, 4.99 2.79, 4.96 2.94 C4.94 3.08, 4.9 3.22, 4.85 3.36 C4.8 3.49, 4.74 3.63, 4.67 3.75 C4.59 3.88, 4.51 4, 4.42 4.11 C4.32 4.22, 4.22 4.32, 4.11 4.42 C4 4.51, 3.88 4.59, 3.75 4.67 C3.63 4.74, 3.49 4.8, 3.36 4.85 C3.22 4.9, 3.08 4.94, 2.94 4.96 C2.79 4.99, 2.65 5, 2.5 5 C2.36 5, 2.21 4.99, 2.07 4.96 C1.92 4.94, 1.78 4.9, 1.65 4.85 C1.51 4.8, 1.38 4.74, 1.25 4.67 C1.13 4.59, 1 4.51, 0.89 4.42 C0.78 4.32, 0.68 4.22, 0.59 4.11 C0.49 4, 0.41 3.88, 0.34 3.75 C0.26 3.63, 0.2 3.49, 0.15 3.36 C0.1 3.22, 0.06 3.08, 0.04 2.94 C0.01 2.79, 0 2.65, 0 2.5 C0 2.36, 0.01 2.21, 0.04 2.07 C0.06 1.92, 0.1 1.78, 0.15 1.65 C0.2 1.51, 0.26 1.38, 0.34 1.25 C0.41 1.13, 0.49 1, 0.59 0.89 C0.68 0.78, 0.78 0.68, 0.89 0.59 C1 0.49, 1.13 0.41, 1.25 0.34 C1.38 0.26, 1.51 0.2, 1.65 0.15 C1.78 0.1, 1.92 0.06, 2.07 0.04 C2.21 0.01, 2.36 0, 2.5 0 C2.65 0, 2.79 0.01, 2.94 0.04 C3.08 0.06, 3.22 0.1, 3.36 0.15 C3.49 0.2, 3.63 0.26, 3.75 0.34 C3.88 0.41, 4 0.49, 4.11 0.59 C4.22 0.68, 4.32 0.78, 4.42 0.89 C4.51 1, 4.59 1.13, 4.67 1.25 C4.74 1.38, 4.8 1.51, 4.85 1.65 C4.9 1.78, 4.94 1.92, 4.96 2.07 C4.99 2.21, 5 2.43, 5 2.5 C5.01 2.57, 5.01 2.43, 5 2.5" stroke="none" stroke-width="0" fill="#fa5252"></path><path d="M5 2.5 C5 2.65, 4.99 2.79, 4.96 2.94 C4.94 3.08, 4.9 3.22, 4.85 3.36 C4.8 3.49, 4.74 3.63, 4.67 3.75 C4.59 3.88, 4.51 4, 4.42 4.11 C4.32 4.22, 4.22 4.32, 4.11 4.42 C4 4.51, 3.88 4.59, 3.75 4.67 C3.63 4.74, 3.49 4.8, 3.36 4.85 C3.22 4.9, 3.08 4.94, 2.94 4.96 C2.79 4.99, 2.65 5, 2.5 5 C2.36 5, 2.21 4.99, 2.07 4.96 C1.92 4.94, 1.78 4.9, 1.65 4.85 C1.51 4.8, 1.38 4.74, 1.25 4.67 C1.13 4.59, 1 4.51, 0.89 4.42 C0.78 4.32, 0.68 4.22, 0.59 4.11 C0.49 4, 0.41 3.88, 0.34 3.75 C0.26 3.63, 0.2 3.49, 0.15 3.36 C0.1 3.22, 0.06 3.08, 0.04 2.94 C0.01 2.79, 0 2.65, 0 2.5 C0 2.36, 0.01 2.21, 0.04 2.07 C0.06 1.92, 0.1 1.78, 0.15 1.65 C0.2 1.51, 0.26 1.38, 0.34 1.25 C0.41 1.13, 0.49 1, 0.59 0.89 C0.68 0.78, 0.78 0.68, 0.89 0.59 C1 0.49, 1.13 0.41, 1.25 0.34 C1.38 0.26, 1.51 0.2, 1.65 0.15 C1.78 0.1, 1.92 0.06, 2.07 0.04 C2.21 0.01, 2.36 0, 2.5 0 C2.65 0, 2.79 0.01, 2.94 0.04 C3.08 0.06, 3.22 0.1, 3.36 0.15 C3.49 0.2, 3.63 0.26, 3.75 0.34 C3.88 0.41, 4 0.49, 4.11 0.59 C4.22 0.68, 4.32 0.78, 4.42 0.89 C4.51 1, 4.59 1.13, 4.67 1.25 C4.74 1.38, 4.8 1.51, 4.85 1.65 C4.9 1.78, 4.94 1.92, 4.96 2.07 C4.99 2.21, 5 2.43, 5 2.5 C5.01 2.57, 5.01 2.43, 5 2.5" stroke="#000000" stroke-width="1" fill="none"></path></g><g stroke-linecap="round" transform="translate(25.47257326048691 245.51086535011996) rotate(0 2.5009765625 2.5009765625)"><path d="M5 2.5 C5 2.65, 4.99 2.79, 4.96 2.94 C4.94 3.08, 4.9 3.22, 4.85 3.36 C4.8 3.49, 4.74 3.63, 4.67 3.75 C4.59 3.88, 4.51 4, 4.42 4.11 C4.32 4.22, 4.22 4.32, 4.11 4.42 C4 4.51, 3.88 4.59, 3.75 4.67 C3.63 4.74, 3.49 4.8, 3.36 4.85 C3.22 4.9, 3.08 4.94, 2.94 4.96 C2.79 4.99, 2.65 5, 2.5 5 C2.36 5, 2.21 4.99, 2.07 4.96 C1.92 4.94, 1.78 4.9, 1.65 4.85 C1.51 4.8, 1.38 4.74, 1.25 4.67 C1.13 4.59, 1 4.51, 0.89 4.42 C0.78 4.32, 0.68 4.22, 0.59 4.11 C0.49 4, 0.41 3.88, 0.34 3.75 C0.26 3.63, 0.2 3.49, 0.15 3.36 C0.1 3.22, 0.06 3.08, 0.04 2.94 C0.01 2.79, 0 2.65, 0 2.5 C0 2.36, 0.01 2.21, 0.04 2.07 C0.06 1.92, 0.1 1.78, 0.15 1.65 C0.2 1.51, 0.26 1.38, 0.34 1.25 C0.41 1.13, 0.49 1, 0.59 0.89 C0.68 0.78, 0.78 0.68, 0.89 0.59 C1 0.49, 1.13 0.41, 1.25 0.34 C1.38 0.26, 1.51 0.2, 1.65 0.15 C1.78 0.1, 1.92 0.06, 2.07 0.04 C2.21 0.01, 2.36 0, 2.5 0 C2.65 0, 2.79 0.01, 2.94 0.04 C3.08 0.06, 3.22 0.1, 3.36 0.15 C3.49 0.2, 3.63 0.26, 3.75 0.34 C3.88 0.41, 4 0.49, 4.11 0.59 C4.22 0.68, 4.32 0.78, 4.42 0.89 C4.51 1, 4.59 1.13, 4.67 1.25 C4.74 1.38, 4.8 1.51, 4.85 1.65 C4.9 1.78, 4.94 1.92, 4.96 2.07 C4.99 2.21, 5 2.43, 5 2.5 C5.01 2.57, 5.01 2.43, 5 2.5" stroke="none" stroke-width="0" fill="#fab005"></path><path d="M5 2.5 C5 2.65, 4.99 2.79, 4.96 2.94 C4.94 3.08, 4.9 3.22, 4.85 3.36 C4.8 3.49, 4.74 3.63, 4.67 3.75 C4.59 3.88, 4.51 4, 4.42 4.11 C4.32 4.22, 4.22 4.32, 4.11 4.42 C4 4.51, 3.88 4.59, 3.75 4.67 C3.63 4.74, 3.49 4.8, 3.36 4.85 C3.22 4.9, 3.08 4.94, 2.94 4.96 C2.79 4.99, 2.65 5, 2.5 5 C2.36 5, 2.21 4.99, 2.07 4.96 C1.92 4.94, 1.78 4.9, 1.65 4.85 C1.51 4.8, 1.38 4.74, 1.25 4.67 C1.13 4.59, 1 4.51, 0.89 4.42 C0.78 4.32, 0.68 4.22, 0.59 4.11 C0.49 4, 0.41 3.88, 0.34 3.75 C0.26 3.63, 0.2 3.49, 0.15 3.36 C0.1 3.22, 0.06 3.08, 0.04 2.94 C0.01 2.79, 0 2.65, 0 2.5 C0 2.36, 0.01 2.21, 0.04 2.07 C0.06 1.92, 0.1 1.78, 0.15 1.65 C0.2 1.51, 0.26 1.38, 0.34 1.25 C0.41 1.13, 0.49 1, 0.59 0.89 C0.68 0.78, 0.78 0.68, 0.89 0.59 C1 0.49, 1.13 0.41, 1.25 0.34 C1.38 0.26, 1.51 0.2, 1.65 0.15 C1.78 0.1, 1.92 0.06, 2.07 0.04 C2.21 0.01, 2.36 0, 2.5 0 C2.65 0, 2.79 0.01, 2.94 0.04 C3.08 0.06, 3.22 0.1, 3.36 0.15 C3.49 0.2, 3.63 0.26, 3.75 0.34 C3.88 0.41, 4 0.49, 4.11 0.59 C4.22 0.68, 4.32 0.78, 4.42 0.89 C4.51 1, 4.59 1.13, 4.67 1.25 C4.74 1.38, 4.8 1.51, 4.85 1.65 C4.9 1.78, 4.94 1.92, 4.96 2.07 C4.99 2.21, 5 2.43, 5 2.5 C5.01 2.57, 5.01 2.43, 5 2.5" stroke="#000000" stroke-width="1" fill="none"></path></g><g stroke-linecap="round" transform="translate(36.1859897268331 245.96158650396615) rotate(0 2.5009765625 2.5009765625)"><path d="M5 2.5 C5 2.65, 4.99 2.79, 4.96 2.94 C4.94 3.08, 4.9 3.22, 4.85 3.36 C4.8 3.49, 4.74 3.63, 4.67 3.75 C4.59 3.88, 4.51 4, 4.42 4.11 C4.32 4.22, 4.22 4.32, 4.11 4.42 C4 4.51, 3.88 4.59, 3.75 4.67 C3.63 4.74, 3.49 4.8, 3.36 4.85 C3.22 4.9, 3.08 4.94, 2.94 4.96 C2.79 4.99, 2.65 5, 2.5 5 C2.36 5, 2.21 4.99, 2.07 4.96 C1.92 4.94, 1.78 4.9, 1.65 4.85 C1.51 4.8, 1.38 4.74, 1.25 4.67 C1.13 4.59, 1 4.51, 0.89 4.42 C0.78 4.32, 0.68 4.22, 0.59 4.11 C0.49 4, 0.41 3.88, 0.34 3.75 C0.26 3.63, 0.2 3.49, 0.15 3.36 C0.1 3.22, 0.06 3.08, 0.04 2.94 C0.01 2.79, 0 2.65, 0 2.5 C0 2.36, 0.01 2.21, 0.04 2.07 C0.06 1.92, 0.1 1.78, 0.15 1.65 C0.2 1.51, 0.26 1.38, 0.34 1.25 C0.41 1.13, 0.49 1, 0.59 0.89 C0.68 0.78, 0.78 0.68, 0.89 0.59 C1 0.49, 1.13 0.41, 1.25 0.34 C1.38 0.26, 1.51 0.2, 1.65 0.15 C1.78 0.1, 1.92 0.06, 2.07 0.04 C2.21 0.01, 2.36 0, 2.5 0 C2.65 0, 2.79 0.01, 2.94 0.04 C3.08 0.06, 3.22 0.1, 3.36 0.15 C3.49 0.2, 3.63 0.26, 3.75 0.34 C3.88 0.41, 4 0.49, 4.11 0.59 C4.22 0.68, 4.32 0.78, 4.42 0.89 C4.51 1, 4.59 1.13, 4.67 1.25 C4.74 1.38, 4.8 1.51, 4.85 1.65 C4.9 1.78, 4.94 1.92, 4.96 2.07 C4.99 2.21, 5 2.43, 5 2.5 C5.01 2.57, 5.01 2.43, 5 2.5" stroke="none" stroke-width="0" fill="#40c057"></path><path d="M5 2.5 C5 2.65, 4.99 2.79, 4.96 2.94 C4.94 3.08, 4.9 3.22, 4.85 3.36 C4.8 3.49, 4.74 3.63, 4.67 3.75 C4.59 3.88, 4.51 4, 4.42 4.11 C4.32 4.22, 4.22 4.32, 4.11 4.42 C4 4.51, 3.88 4.59, 3.75 4.67 C3.63 4.74, 3.49 4.8, 3.36 4.85 C3.22 4.9, 3.08 4.94, 2.94 4.96 C2.79 4.99, 2.65 5, 2.5 5 C2.36 5, 2.21 4.99, 2.07 4.96 C1.92 4.94, 1.78 4.9, 1.65 4.85 C1.51 4.8, 1.38 4.74, 1.25 4.67 C1.13 4.59, 1 4.51, 0.89 4.42 C0.78 4.32, 0.68 4.22, 0.59 4.11 C0.49 4, 0.41 3.88, 0.34 3.75 C0.26 3.63, 0.2 3.49, 0.15 3.36 C0.1 3.22, 0.06 3.08, 0.04 2.94 C0.01 2.79, 0 2.65, 0 2.5 C0 2.36, 0.01 2.21, 0.04 2.07 C0.06 1.92, 0.1 1.78, 0.15 1.65 C0.2 1.51, 0.26 1.38, 0.34 1.25 C0.41 1.13, 0.49 1, 0.59 0.89 C0.68 0.78, 0.78 0.68, 0.89 0.59 C1 0.49, 1.13 0.41, 1.25 0.34 C1.38 0.26, 1.51 0.2, 1.65 0.15 C1.78 0.1, 1.92 0.06, 2.07 0.04 C2.21 0.01, 2.36 0, 2.5 0 C2.65 0, 2.79 0.01, 2.94 0.04 C3.08 0.06, 3.22 0.1, 3.36 0.15 C3.49 0.2, 3.63 0.26, 3.75 0.34 C3.88 0.41, 4 0.49, 4.11 0.59 C4.22 0.68, 4.32 0.78, 4.42 0.89 C4.51 1, 4.59 1.13, 4.67 1.25 C4.74 1.38, 4.8 1.51, 4.85 1.65 C4.9 1.78, 4.94 1.92, 4.96 2.07 C4.99 2.21, 5 2.43, 5 2.5 C5.01 2.57, 5.01 2.43, 5 2.5" stroke="#000000" stroke-width="1" fill="none"></path></g><g stroke-opacity="0.9" fill-opacity="0.9" stroke-linecap="round" transform="translate(52.213050716460316 262.013955381982) rotate(0 21.360101269687846 21.360101269687846)"><path d="M19.31 0.89 C23.76 0.37, 30.57 1.43, 34.44 4 C38.3 6.57, 41.65 11.89, 42.5 16.34 C43.35 20.79, 41.51 26.54, 39.53 30.72 C37.56 34.9, 34.78 39.57, 30.65 41.4 C26.52 43.24, 19.15 43.01, 14.77 41.72 C10.39 40.42, 6.94 37.52, 4.38 33.64 C1.83 29.75, -0.98 23, -0.56 18.38 C-0.13 13.77, 3.32 8.95, 6.92 5.94 C10.52 2.92, 18.35 1.19, 21.03 0.28 C23.71 -0.63, 22.98 0.29, 23 0.48 M12.71 2.48 C16.27 0.95, 21.76 1.05, 26.28 2.44 C30.79 3.84, 36.87 7.15, 39.79 10.85 C42.72 14.56, 44.53 20.38, 43.84 24.67 C43.15 28.95, 39.3 33.56, 35.66 36.57 C32.03 39.58, 26.41 42.19, 22.02 42.73 C17.63 43.27, 13.02 42.79, 9.3 39.8 C5.58 36.81, 0.62 29.38, -0.3 24.78 C-1.22 20.18, 1.42 15.82, 3.77 12.21 C6.11 8.61, 12.02 4.98, 13.78 3.15 C15.54 1.31, 14.54 1.17, 14.34 1.21" stroke="none" stroke-width="0" fill="#04aaf7"></path><path d="M19.9 -0.6 C24.45 -1.1, 30.28 1.68, 33.93 4.32 C37.59 6.96, 40.71 10.85, 41.83 15.26 C42.94 19.67, 42.3 26.43, 40.62 30.76 C38.93 35.08, 35.86 39.26, 31.73 41.22 C27.6 43.18, 20.34 43.77, 15.87 42.53 C11.39 41.28, 7.57 37.52, 4.88 33.74 C2.18 29.96, -0.45 24.24, -0.31 19.85 C-0.17 15.46, 2.32 10.76, 5.74 7.42 C9.15 4.08, 17.45 0.89, 20.17 -0.19 C22.88 -1.27, 22.14 0.56, 22 0.93 M25.74 1.81 C30.24 2.25, 34.6 3.65, 37.58 7.16 C40.55 10.68, 43.67 18.19, 43.57 22.91 C43.47 27.63, 40.01 32.03, 36.98 35.49 C33.95 38.95, 29.77 43.04, 25.4 43.67 C21.04 44.3, 14.65 41.58, 10.8 39.26 C6.94 36.94, 4.06 34.23, 2.28 29.77 C0.5 25.3, -1.55 17.08, 0.12 12.47 C1.79 7.87, 7.87 4.31, 12.28 2.12 C16.7 -0.08, 24.52 -0.72, 26.6 -0.7 C28.68 -0.68, 25.18 1.67, 24.76 2.24" stroke="#000000" stroke-width="1" fill="none"></path></g><g stroke-linecap="round"><g transform="translate(79.29121477843591 278.23830744643965) rotate(0 -3.464089655359544 6.480451691366909)" fill-rule="evenodd"><path d="M0 0 L-1.83 -0.41 L-7.57 -6.27 L-9.75 -6.1 L-11.36 -4.35 L-12.61 2.37 L-11.27 6.74 L-17.42 8.89 L-18 11.42 L-17.2 13.64 L-15.01 14.04 L-12.38 13.35 L-8.7 9.48 L-3.62 17.87 L-1.49 19.38 L-0.42 18.17 L-3.78 4.8 L-1.52 3.64 L1.39 4.35 L3.16 5.87 L6.21 6.29 L9.24 5.87 L10.81 3.22 L10.8 0.63 L4.22 1.11 L5.49 -5.76 L4.23 -6.26 L2.47 -5.35 L-0.24 -0.92 L0 0" stroke="none" stroke-width="0" fill="#40c057" fill-rule="evenodd"></path><path d="M0 0 C-0.31 -0.07, -0.57 0.63, -1.83 -0.41 C-3.09 -1.46, -5.98 -5.62, -7.57 -6.27 C-9.16 -6.93, -10.52 -5.79, -11.36 -4.35 C-12.2 -2.91, -12.63 0.53, -12.61 2.37 C-12.6 4.22, -10.47 5.65, -11.27 6.74 C-12.07 7.83, -16.44 7.74, -17.42 8.89 C-18.41 10.04, -18.04 12.9, -17.2 13.64 C-16.36 14.39, -13.8 14.04, -12.38 13.35 C-10.96 12.66, -10.16 8.72, -8.7 9.48 C-7.24 10.23, -5 16.42, -3.62 17.87 C-2.24 19.32, -0.39 20.35, -0.42 18.17 C-0.44 15.99, -4.08 7.1, -3.78 4.8 C-3.48 2.5, 0.23 4.17, 1.39 4.35 C2.54 4.53, 1.85 5.61, 3.16 5.87 C4.47 6.12, 7.96 6.74, 9.24 5.87 C10.51 5, 11.64 1.43, 10.8 0.63 C9.97 -0.16, 5.11 2.18, 4.22 1.11 C3.34 0.04, 5.78 -4.68, 5.49 -5.76 C5.19 -6.84, 3.43 -6.15, 2.47 -5.35 C1.52 -4.54, 0.17 -1.81, -0.24 -0.92 C-0.65 -0.03, -0.04 -0.15, 0 0 M0 0 C-0.31 -0.07, -0.57 0.63, -1.83 -0.41 C-3.09 -1.46, -5.98 -5.62, -7.57 -6.27 C-9.16 -6.93, -10.52 -5.79, -11.36 -4.35 C-12.2 -2.91, -12.63 0.53, -12.61 2.37 C-12.6 4.22, -10.47 5.65, -11.27 6.74 C-12.07 7.83, -16.44 7.74, -17.42 8.89 C-18.41 10.04, -18.04 12.9, -17.2 13.64 C-16.36 14.39, -13.8 14.04, -12.38 13.35 C-10.96 12.66, -10.16 8.72, -8.7 9.48 C-7.24 10.23, -5 16.42, -3.62 17.87 C-2.24 19.32, -0.39 20.35, -0.42 18.17 C-0.44 15.99, -4.08 7.1, -3.78 4.8 C-3.48 2.5, 0.23 4.17, 1.39 4.35 C2.54 4.53, 1.85 5.61, 3.16 5.87 C4.47 6.12, 7.96 6.74, 9.24 5.87 C10.51 5, 11.64 1.43, 10.8 0.63 C9.97 -0.16, 5.11 2.18, 4.22 1.11 C3.34 0.04, 5.78 -4.68, 5.49 -5.76 C5.19 -6.84, 3.43 -6.15, 2.47 -5.35 C1.52 -4.54, 0.17 -1.81, -0.24 -0.92 C-0.65 -0.03, -0.04 -0.15, 0 0" stroke="#087f5b" stroke-width="1" fill="none"></path></g></g><mask></mask><g stroke-linecap="round"><g stroke-opacity="0.9" fill-opacity="0.9" transform="translate(53.27211319048786 282.976828945163) rotate(0 21.614387085284477 0.06678009300753729)"><path d="M-0.26 -0.99 C6.65 -0.64, 34.32 0.72, 41.23 1.02 M1.81 1.11 C9.11 1.23, 36.51 -0.2, 43.49 -0.57" stroke="#000000" stroke-width="1" fill="none"></path></g></g><mask></mask><g stroke-linecap="round"><g stroke-opacity="0.9" fill-opacity="0.9" transform="translate(58.367442220262205 267.5423000181968) rotate(0 14.659303301924297 2.6276150615775578)"><path d="M0 0 C0.13 0.38, 0.09 1.58, 0.77 2.28 C1.46 2.97, 2.81 3.68, 4.1 4.19 C5.4 4.7, 6.64 5.13, 8.54 5.34 C10.43 5.55, 12.97 5.55, 15.48 5.45 C17.99 5.34, 21.44 5.28, 23.58 4.71 C25.72 4.14, 27.36 2.86, 28.32 2.03 C29.27 1.2, 29.15 0.12, 29.32 -0.26 M0 0 C0.13 0.38, 0.09 1.58, 0.77 2.28 C1.46 2.97, 2.81 3.68, 4.1 4.19 C5.4 4.7, 6.64 5.13, 8.54 5.34 C10.43 5.55, 12.97 5.55, 15.48 5.45 C17.99 5.34, 21.44 5.28, 23.58 4.71 C25.72 4.14, 27.36 2.86, 28.32 2.03 C29.27 1.2, 29.15 0.12, 29.32 -0.26" stroke="#000000" stroke-width="1" fill="none"></path></g></g><mask></mask><g stroke-opacity="0.9" fill-opacity="0.9" stroke-linecap="round" transform="translate(66.44135814418166 260.6314257523893) rotate(0 7.764217176558077 22.41115194065469)"><path d="M4.98 1.29 C6.27 -0.57, 8.32 0.31, 10.05 2.04 C11.79 3.78, 14.56 7.61, 15.39 11.69 C16.22 15.76, 15.33 21.9, 15.03 26.49 C14.73 31.07, 14.83 36.15, 13.58 39.19 C12.32 42.23, 9.32 44.5, 7.49 44.73 C5.67 44.96, 3.84 43.65, 2.63 40.58 C1.42 37.51, 0.34 31.09, 0.22 26.32 C0.1 21.54, 1.04 16.25, 1.89 11.92 C2.75 7.59, 4.36 2.37, 5.34 0.32 C6.33 -1.74, 7.65 -0.87, 7.81 -0.43 M12.23 3.92 C13.62 5.93, 13.76 9.73, 14.34 14.15 C14.91 18.58, 16.05 26.02, 15.69 30.47 C15.34 34.92, 13.52 38.29, 12.2 40.86 C10.88 43.43, 9.69 46.7, 7.78 45.91 C5.88 45.12, 1.84 39.97, 0.78 36.1 C-0.28 32.22, 1.07 27.4, 1.43 22.66 C1.8 17.92, 2.24 11.09, 2.95 7.64 C3.66 4.2, 4.41 2.77, 5.68 1.97 C6.95 1.18, 9.67 2.83, 10.58 2.88 C11.5 2.93, 11.13 2.1, 11.17 2.29" stroke="#000000" stroke-width="1" fill="none"></path></g><g stroke-linecap="round"><g stroke-opacity="0.9" fill-opacity="0.9" transform="translate(59.8833937298881 299.2793920766378) rotate(0 14.659303301924297 -2.7126663098105723)"><path d="M0 0 C0.68 -0.72, 2.68 -3.4, 4.1 -4.32 C5.53 -5.24, 6.64 -5.3, 8.54 -5.52 C10.43 -5.73, 12.97 -5.73, 15.48 -5.63 C17.99 -5.52, 21.44 -5.45, 23.58 -4.86 C25.72 -4.28, 27.36 -2.95, 28.32 -2.1 C29.27 -1.24, 29.15 -0.12, 29.32 0.27 M0 0 C0.68 -0.72, 2.68 -3.4, 4.1 -4.32 C5.53 -5.24, 6.64 -5.3, 8.54 -5.52 C10.43 -5.73, 12.97 -5.73, 15.48 -5.63 C17.99 -5.52, 21.44 -5.45, 23.58 -4.86 C25.72 -4.28, 27.36 -2.95, 28.32 -2.1 C29.27 -1.24, 29.15 -0.12, 29.32 0.27" stroke="#000000" stroke-width="1" fill="none"></path></g></g><mask></mask><g transform="translate(248.45282284510142 475.87109375) rotate(0 111.5 12.5)"><text x="0" y="18" font-family="Virgil, Segoe UI Emoji" font-size="20px" fill="#000000" text-anchor="start" style="white-space: pre;" direction="ltr">Authorization Canister</text></g><g transform="translate(262.4215728451014 10) rotate(0 108 12.5)"><text x="0" y="18" font-family="Virgil, Segoe UI Emoji" font-size="20px" fill="#000000" text-anchor="start" style="white-space: pre;" direction="ltr">Resource  Canister(s)</text></g><g stroke-linecap="round"><g transform="translate(124.74579159510142 232.05859375) rotate(0 69.33519125320015 -34.31533933172932)"><path d="M-0.5 -0.94 C22.65 -12.44, 116.05 -58.41, 139.17 -69.81 M1.43 1.18 C24.42 -10.03, 115.06 -56.09, 138.28 -68.19" stroke="#000000" stroke-width="1" fill="none"></path></g><g transform="translate(124.74579159510142 232.05859375) rotate(0 69.33519125320015 -34.31533933172932)"><path d="M116.32 -46.02 C124.84 -54.5, 132.11 -59.57, 136.32 -66.47 M117.13 -45.42 C122.91 -52.52, 128.58 -58.39, 137.4 -68.33" stroke="#000000" stroke-width="1" fill="none"></path></g><g transform="translate(124.74579159510142 232.05859375) rotate(0 69.33519125320015 -34.31533933172932)"><path d="M106.95 -64.28 C118.35 -66.86, 128.62 -66.08, 136.32 -66.47 M107.76 -63.68 C116.14 -65.73, 124.41 -66.52, 137.4 -68.33" stroke="#000000" stroke-width="1" fill="none"></path></g></g><mask></mask><g transform="translate(436.9176665951014 382.2890625) rotate(0 107 20)"><text x="0" y="14" font-family="Virgil, Segoe UI Emoji" font-size="16px" fill="#000000" text-anchor="start" style="white-space: pre;" direction="ltr">Permissions are </text><text x="0" y="34" font-family="Virgil, Segoe UI Emoji" font-size="16px" fill="#000000" text-anchor="start" style="white-space: pre;" direction="ltr">managed in a central place</text></g><g stroke-linecap="round"><g transform="translate(356.5863815919014 211.7294018317292) rotate(0 0.4945229794830084 52.763448588792244)"><path d="M-0.93 -0.88 C-0.72 16.86, 1.34 87.66, 1.92 105.32 M0.79 1.27 C0.75 19.24, 0.6 88.97, 0.78 106.41" stroke="#000000" stroke-width="1" fill="none"></path></g><g transform="translate(356.5863815919014 211.7294018317292) rotate(0 0.4945229794830084 52.763448588792244)"><path d="M-11.03 77.66 C-7.61 88.69, -4.28 98.52, 0.02 104.86 M-10.54 78.61 C-4.98 90.08, -1.22 100.7, 1.54 106.87" stroke="#000000" stroke-width="1" fill="none"></path></g><g transform="translate(356.5863815919014 211.7294018317292) rotate(0 0.4945229794830084 52.763448588792244)"><path d="M9.49 77.6 C5.65 88.49, 1.7 98.34, 0.02 104.86 M9.99 78.54 C7.44 90.02, 3.11 100.66, 1.54 106.87" stroke="#000000" stroke-width="1" fill="none"></path></g></g><mask></mask><g transform="translate(41.67547909510142 148.84375) rotate(0 78.5 20)"><text x="0" y="14" font-family="Virgil, Segoe UI Emoji" font-size="16px" fill="#000000" text-anchor="start" style="white-space: pre;" direction="ltr">Composite query or </text><text x="0" y="34" font-family="Virgil, Segoe UI Emoji" font-size="16px" fill="#000000" text-anchor="start" style="white-space: pre;" direction="ltr">update call</text></g><g transform="translate(395.3004790951014 222.54296875) rotate(0 94 30)"><text x="0" y="14" font-family="Virgil, Segoe UI Emoji" font-size="16px" fill="#000000" text-anchor="start" style="white-space: pre;" direction="ltr">Inter-canister query</text><text x="0" y="34" font-family="Virgil, Segoe UI Emoji" font-size="16px" fill="#000000" text-anchor="start" style="white-space: pre;" direction="ltr">or update call to check</text><text x="0" y="54" font-family="Virgil, Segoe UI Emoji" font-size="16px" fill="#000000" text-anchor="start" style="white-space: pre;" direction="ltr">permissions</text></g></svg>